<svg xmlns="http://www.w3.org/2000/svg" xml:space="preserve" width="2400" height="1496.001" style="shape-rendering:geometricPrecision;text-rendering:geometricPrecision;image-rendering:optimizeQuality;fill-rule:evenodd;clip-rule:evenodd" viewBox="0 0 63500 39581.66"><defs><radialGradient id="id0" gradientUnits="userSpaceOnUse" gradientTransform="matrix(.99832 0 0 1 96 0)" cx="56848.17" cy="8282.28" r="2018.99" fx="56848.17" fy="8282.28"><stop offset="0" style="stop-opacity:1;stop-color:white"/><stop offset="1" style="stop-opacity:1;stop-color:#3f3fcc"/></radialGradient><style>.fil6,.fil9{fill:#2d546c;fill-rule:nonzero}.fil6{fill:#47748c}.fil11,.fil16,.fil7{fill:#4c4c4e;fill-rule:nonzero}.fil11,.fil7{fill:#59595b}.fil11{fill:#5d9db3}.fil10,.fil3,.fil5{fill:#7db7c9;fill-rule:nonzero}.fil3,.fil5{fill:#a5a6a9}.fil5{fill:#d67729}.fil0,.fil1,.fil8{fill:#d9d9da;fill-rule:nonzero}.fil0,.fil8{fill:#dbdbdb}.fil0{fill:#e5e5e6}</style></defs><g id="Слой_x0020_1"><path class="fil0" d="M30263.04 5932.22h2260.07V3672.2h-2260.07v2260.02zm2418.97 158.91h-2577.87V3513.26h2577.87v2577.87zM47452.57 34208.85c-377.01 0-682.18-305.46-682.18-682.26s305.17-682.27 682.18-682.27c377.02 0 682.18 305.47 682.18 682.27 0 376.8-305.16 682.26-682.18 682.26zm0-1469.02c-434.58 0-786.93 352.26-786.93 786.76s352.35 786.76 786.93 786.76c434.59 0 786.93-352.26 786.93-786.76s-352.34-786.76-786.93-786.76zM35363.76 35133.91c-1390.33 0-2517.35-1127.03-2517.35-2517.27s1127.02-2517.27 2517.35-2517.27c1390.29 0 2517.05 1127.03 2517.05 2517.27s-1126.76 2517.27-2517.05 2517.27zm0-5273.34c-1522.26 0-2756.16 1233.94-2756.16 2756.07 0 1522.14 1233.9 2756.05 2756.16 2756.05 1521.88 0 2755.9-1233.91 2755.9-2756.05 0-1522.13-1234.02-2756.07-2755.9-2756.07zM20354.43 11424.72c-1102 0-1995.33-893.33-1995.33-1995.29 0-1102 893.33-1995.33 1995.33-1995.33 1101.97 0 1995.29 893.33 1995.29 1995.33 0 1101.96-893.32 1995.29-1995.29 1995.29zm0-4179.95c-1206.53 0-2184.66 978.12-2184.66 2184.66s978.13 2184.58 2184.66 2184.58c1206.54 0 2184.62-978.04 2184.62-2184.58s-978.08-2184.66-2184.62-2184.66zM47742.59 14655.81c-1293.37 0-2342.61-1048.9-2342.61-2342.74 0-1293.81 1049.24-2342.66 2342.61-2342.66 1294.23 0 2343.04 1048.85 2343.04 2342.66 0 1293.84-1048.81 2342.74-2343.04 2342.74zm0-4907.71c-1416.74 0-2565.1 1148.41-2565.1 2564.97 0 1416.64 1148.36 2564.97 2565.1 2564.97 1416.73 0 2565.09-1148.33 2565.09-2564.97 0-1416.56-1148.36-2564.97-2565.09-2564.97zM54856.99 28504.91H58857v-3999.75h-4000.01v3999.75zm4280.93 281.23h-4561.85v-4562.21h4561.85v4562.21zM-20486.59 25778.9h4236.66v-4236.66h-4236.66zM57100.47 16305.63c0-245.04 198.68-443.67 443.68-443.67 245.43 0 443.68 198.63 443.68 443.67 0 245.09-198.25 443.72-443.68 443.72-245 0-443.68-198.63-443.68-443.72z"/><path class="fil1" d="M57544.15 16749.35c-245 0-443.68-198.63-443.68-443.72 0-245.04 198.68-443.67 443.68-443.67v887.39z"/><path class="fil0" d="M18472.73 5875.87c0-245.04 198.64-443.68 443.67-443.68 245.04 0 443.72 198.64 443.72 443.68 0 245.04-198.68 443.72-443.72 443.72-245.03 0-443.67-198.68-443.67-443.72z"/><path class="fil1" d="M18916.4 6319.59c-245.03 0-443.67-198.68-443.67-443.72 0-245.04 198.64-443.68 443.67-443.68v887.4z"/><path class="fil0" d="M9761.78 16469.34c0-441.77 358.06-799.87 799.83-799.87 441.73 0 799.83 358.1 799.83 799.87 0 441.68-358.1 799.79-799.83 799.79-441.77 0-799.83-358.11-799.83-799.79z"/><path d="M17458.41 22663.48c-441.77 0-799.83-358.11-799.83-799.79 0-441.77 358.06-799.87 799.83-799.87v1599.66z" style="fill:#ff002b;fill-rule:nonzero"/><path class="fil3" d="M10295.41 34469.52c0-313.82 254.34-568.21 568.16-568.21 313.78 0 568.17 254.39 568.17 568.21 0 313.73-254.39 568.12-568.17 568.12-313.82 0-568.16-254.39-568.16-568.12z"/><path d="M10863.57 35037.64c-313.82 0-568.16-254.39-568.16-568.12 0-313.82 254.34-568.21 568.16-568.21v1136.33z" style="fill:#9c9da0;fill-rule:nonzero"/><path class="fil0" d="M11933.63 36205.58c0-185.55 150.51-335.83 336.16-335.83 185.61 0 336.15 150.28 336.15 335.83 0 185.93-150.54 336.21-336.15 336.21-185.65 0-336.16-150.28-336.16-336.21z"/><path class="fil1" d="M12269.79 36541.79c-185.65 0-336.16-150.28-336.16-336.21 0-185.55 150.51-335.83 336.16-335.83v672.04z"/><path class="fil3" d="M15724.97 34626.73h938.58v-5725.06h-938.58zM20897.23 34626.73h938.64v-6322.92h-938.64zM19658.32 34626.73h938.66v-4797.54h-938.66z"/><path class="fil5" d="M18370.05 34626.73h938.64V30688.5h-938.64z"/><path class="fil6" d="M17026.47 34626.73h938.64v-7876.44h-938.64z"/><path class="fil7" d="M21909.55 35350.46h-7024.97v-9252.87h127.34v9125.62h6897.63zM22099.36 35350.46h406.26v-127.26h-406.26zM22645.88 35350.46h406.23v-127.26h-406.23zM23214.91 34849.57l635.69 437.4-635.69 437.08z"/><path class="fil5" d="M45390.45 35645.37h1222.38v-127.35h-1222.38zM35851.29 36317.42l-87.48-92.43 1091.48-1033.77 87.48 92.57zM38945.51 36316.01l-1143.74-1165.96 91.03-89.16 1143.69 1165.86zM43599.3 30026.57l-309.92-1650 125.52-23.55 309.5 1650.04zM44514.79 30224.73l-66.23-108.69 1423.23-867.7 66.22 108.78zM37052.15 34255.86l-1712.76-1288.35 76.57-101.76 1712.72 1288.35z"/><path class="fil6" d="m44778.83 30014.79-950.98 502.68-951.03-502.68 951.03-502.63z"/><path class="fil8" d="M42876.82 30014.79v1028.64l951.03 502.68v-1028.64z"/><path class="fil3" d="M44775.8 30014.79v1028.64l-950.98 502.68v-1028.64z"/><path class="fil6" d="m45470.96 34976.39-950.98 502.82-950.55-502.82 950.55-502.63z"/><path class="fil8" d="M43569.43 34976.39v1028.47l950.55 502.71v-1028.36z"/><path class="fil3" d="M45468.37 34976.39v1028.47l-950.98 502.71v-1028.36z"/><path class="fil6" d="m38325.66 34205-951.07 502.63-951.11-502.63 951.11-502.63z"/><path class="fil8" d="M36423.48 34205v1028.64l951.11 502.75v-1028.76z"/><path class="fil3" d="M38322.84 34205v1028.64l-951.07 502.75v-1028.76z"/><path class="fil7" d="M38783.23 36870.22h859.7v-859.37h-859.7zM42922.36 28619.4h859.7v-859.57h-859.7zM45397.38 29673.27h859.71v-859.57h-859.71zM46612.84 36011.21h859.72v-859.48h-859.72zM35134.22 36870.22h859.57v-859.37h-859.57zM34947.96 33197.27h859.59v-859.59h-859.59zM39798.49 33102.91l-77.61-100.9 201.79-155.44 77.62 100.9-201.8 155.44zm-302.65 233.18-77.61-100.9 201.75-155.44 77.61 100.9-201.75 155.44zm-302.35 233.18-77.96-100.9 201.8-155.44 77.61 100.9-201.45 155.44zm-302.7 233.13-77.95-100.85 201.79-155.44 77.96 100.86-201.8 155.43zm-302.65 233.18-77.96-100.85 201.76-155.48 77.95 100.89-201.75 155.44zm-302.7 233.18-77.61-100.85 201.45-155.48 77.96 100.89-201.8 155.44zM42154 33829.8l-228.98-111.98 56.1-114.4 228.63 111.98-55.75 114.4zm342.91 167.86-228.64-111.93 55.75-114.4 228.94 111.97-56.05 114.36zm343.25 167.91-228.98-111.94 56.1-114.4 228.93 111.94-56.05 114.4zm343.21 167.9-228.94-111.93 56.1-114.41 228.59 111.94-55.75 114.4zm343.21 167.95-228.98-112.02 56.27-114.36 228.55 111.93-55.84 114.45zm342.82 167.86-228.55-111.93 56.28-114.41 228.54 111.94-56.27 114.4zm153.67 75.02-38.96-19.05 55.84-114.4 38.95 19.04-55.83 114.41zM43143.89 31538.1l-78.3-100.38 200.72-156.74 78.47 100.42-200.89 156.7zm-300.92 235.08-78.3-100.38 200.71-156.69 78.31 100.33-200.72 156.74zm-301.26 235.08-78.35-100.42 200.76-156.69 78.3 100.38-200.71 156.73zm-301.27 235.04-78.35-100.37 200.76-156.7 78.3 100.38-200.71 156.69z"/><path class="fil5" d="m42603.78 32037.7-1604.42 847.79-1604.08-847.79 1604.08-847.79z"/><path class="fil8" d="M39395.28 32037.7v1734.92l1604.08 847.79v-1734.92z"/><path class="fil3" d="M42598.5 32037.7v1734.92l-1604.08 847.79v-1734.92z"/><path class="fil7" d="m16001.8 20781.36-616.63-590.97 88.12-91.94 616.6 590.98zM18279.1 18263.62l-124.84-25.02 50-249.76 124.87 25.02-50.03 249.76zm-75.06 374.59-124.88-25.02 50.04-249.71 124.88 24.98-50.04 249.75zm-75.1 374.6-124.84-25.02 50.04-249.76 124.88 25.06-50.08 249.72zm-75.06 374.59-124.83-25.02 50.04-249.71 124.83 25.01-50.04 249.72zm-75.05 374.63-124.88-25.01 50.03-249.76 124.88 25.02-50.03 249.75zm-61.34 306.21-124.88-25.02 36.36-181.37 124.84 25.06-36.32 181.33zM18657.76 20516.59l-90.77-89.3 1369.85-1391.07 90.77 89.34zM20622.23 23727.03l-1888.59-1064 62.5-110.94 1888.59 1064zM14239.32 23937.09l-72.55-104.66 1842.78-1277.18 72.55 104.66z"/><path class="fil6" d="M17458.4 23073.37c-668.11 0-1209.74-541.58-1209.74-1209.74 0-668.11 541.63-1209.74 1209.74-1209.74 668.12 0 1209.75 541.63 1209.75 1209.74 0 668.16-541.63 1209.74-1209.75 1209.74zm0-3017.64c-998.46 0-1807.9 809.44-1807.9 1807.9 0 998.51 809.44 1807.95 1807.9 1807.95 998.51 0 1807.91-809.44 1807.91-1807.95 0-998.46-809.4-1807.9-1807.91-1807.9z"/><path class="fil9" d="M17458.4 23671.58c-662.18 0-1241.21-355.98-1556.14-887.05a1809.65 1809.65 0 0 1-61.38-112.41c-121.8-243.27-190.38-517.87-190.38-808.49 0-998.46 809.44-1807.9 1807.9-1807.9v598.16c-668.11 0-1209.74 541.63-1209.74 1209.74 0 668.16 541.63 1209.74 1209.74 1209.74v598.21z"/><path class="fil10" d="M14939.99 19966.9c-206.3 0-373.54-167.21-373.54-373.55 0-206.3 167.24-373.51 373.54-373.51s373.55 167.21 373.55 373.51c0 206.34-167.25 373.55-373.55 373.55zm0-1110.48c-407 0-736.94 329.92-736.94 736.93 0 407.06 329.94 736.94 736.94 736.94 407 0 736.91-329.88 736.91-736.94 0-407.01-329.91-736.93-736.91-736.93z"/><path class="fil11" d="M14939.99 20330.29c-407 0-736.94-329.88-736.94-736.94 0-407.01 329.94-736.93 736.94-736.93v243.87c-272.33 0-493.09 220.75-493.09 493.06 0 272.35 220.76 493.11 493.09 493.11v243.83z"/><path class="fil5" d="M19075.03 17884.7c0 446.45-361.91 808.31-808.31 808.31-446.45 0-808.32-361.86-808.32-808.31 0-446.4 361.87-808.27 808.32-808.27 446.4 0 808.31 361.87 808.31 808.27z"/><path class="fil3" d="M15011.38 23884.72c0 446.44-361.91 808.35-808.33 808.35-446.41 0-808.29-361.91-808.29-808.35 0-446.36 361.88-808.27 808.29-808.27 446.42 0 808.33 361.91 808.33 808.27zM20439.69 19080.89c0 252.66-204.83 457.45-457.48 457.45-252.62 0-457.44-204.79-457.44-457.45 0-252.65 204.82-457.48 457.44-457.48 252.65 0 457.48 204.83 457.48 457.48zM21110.96 23671.54c0 252.7-204.82 457.48-457.44 457.48-252.66 0-457.48-204.78-457.48-457.48 0-252.62 204.82-457.4 457.48-457.4 252.62 0 457.44 204.78 457.44 457.4z"/><path class="fil10" d="m39336.03 28976.42-115.01-152.45c710.14-536.22 1360.63-1153.82 1932.87-1835.7 575.35-685.29 1072.39-1435.95 1477.42-2230.97 412.03-809.36 729.49-1666.62 943.75-2548.09 219.89-907.22 332-1845.04 332-2787.5 0-1589.57-311.66-3131.53-925.44-4583.06-593.01-1402.11-1442.15-2661.28-2523.42-3742.64-1081.27-1081.4-2340.7-1930.36-3742.59-2523.37-1451.62-613.96-2993.54-925.27-4583.11-925.27v-191.02c1615.28 0 3182.22 316.37 4657.52 940.38 1424.87 602.62 2704.39 1465.34 3803.28 2564.19 1098.89 1098.84 1961.44 2378.45 2564.32 3803.27 623.91 1475.22 940.33 3042.24 940.33 4657.52 0 957.61-113.84 1910.62-337.19 2832.56-217.73 895.88-540.34 1767.17-959.08 2589.73-411.69 807.92-916.48 1570.7-1501.4 2267.12-581.76 692.87-1242.51 1320.42-1964.25 1865.3z"/><path class="fil6" d="m32765.85 8117.15-1064.21-536.27 1064.21-536.26z"/><path class="fil8" d="m39744.9 19007.77 2514.58-101.46c-59.64-1505.03-447.7-2925.62-1094.34-4192.15l-2242.58 1142.78c485.8 951.93 777.5 2019.65 822.34 3150.83zM32136.57 26929.23c-2086.4 0-3976.72-839.22-5352.08-2198.42l-1768.86 1789.98c1829.94 1808.38 4345 2925.02 7120.94 2925.02 174.09 0 347.11-4.37 518.99-13.08l-128.9-2513.32c-129.21 6.49-259.24 9.82-390.09 9.82zM39055.58 22498.36l2286.69 1052.14c152.75-331.44 288.19-672.62 404.97-1022.19l-2385.8-803.03c-88.22 264.43-190.55 522.41-305.86 773.08zM36206.88 25750.96l1345.48 2127.13c1233.34-781.56 2285.99-1822.1 3081.88-3045.26l-2111.03-1370.68c-597.94 919.26-1389.25 1701.38-2316.33 2288.81zM39667.64 20444.55c-49.39 333.51-120.68 660.02-212.06 977.95l2417.24 702.22c122.06-423.81 217.33-859 283.3-1303.63l-2488.48-376.54zM39707.85 20130.25l2501.9 271.75c19.74-184.31 34.54-370.14 44.06-557.26l-2513.19-131.67c-7.02 140.07-17.97 279.19-32.77 417.18z"/><path class="fil3" d="M38572.95 15244.27 40699.87 13899c-1707.44-2694.13-4651.03-4527.35-8033.31-4701.66l-131.63 2513.19c2542.11 130.99 4754.6 1508.85 6038.02 3533.74z"/><path class="fil8" d="m24791.63 21329.65-2427.49 665.95c119.12 435.15 266.42 858.61 439.99 1268.3l2318.2-980.97c-130.46-307.89-241.19-626.22-330.7-953.28zM32845.33 26896.55l234.21 2505.76c1057.6-97.61 2068.05-357.63 3006.31-755.12l-981.02-2318.2c-705.17 298.76-1464.65 494.19-2259.5 567.56zM24522.09 19314.71c0-2284.78 1006.39-4334.43 2599.9-5730.13l-1644.33-1905.13c-2127.7 1857.21-3472.14 4589.17-3472.14 7635.26 0 779.92 88.21 1539.19 255.08 2268.55l2453.2-563.53c-125.4-548.13-191.71-1118.85-191.71-1705.02zM25924.76 23719.53l-2052.99 1455.82c259.67 365.54 542.93 713.17 847.7 1040.54l1842.45-1714.24c-229.07-246.08-442.03-507.3-637.16-782.12zM35396.18 26198.05l1077.42 2274.92c88.52-42.03 176.39-85.15 263.48-129.64l-1142.61-2242.71a7413.188 7413.188 0 0 1-198.29 97.43zM25253.27 22574.41l-2274.96 1077.33c192.71 406.24 411.65 797.58 654.65 1171.91l2112.33-1368.42c-182.62-281.36-347.23-575.48-492.02-880.82zM31829.63 11706.38l-101.46-2514.54c-645.78 25.58-1275.93 111.54-1885.08 252.53l577.17 2450.13c455.49-104.97 926.61-168.99 1409.37-188.12zM29752.23 12081.14l-801.34-2386.24c-988.17 327.02-1908.94 802.08-2735.99 1398.9l1461.06 2049.18c626.94-453.89 1325.87-814.63 2076.27-1061.84z"/><path class="fil5" d="m37091.29 30202.96-77.62-174.53a12861.08 12861.08 0 0 0 229.68-105.27l81.5 172.84c-77.26 36.4-155.95 72.41-233.56 106.96z"/><path d="m21376.92 14697.92-176.04-74.1c65.75-156.17 135.7-312.95 207.95-466.06l172.83 81.51c-71.16 150.68-139.98 304.99-204.74 458.65zm-270.05 703.22-180.46-62.76c55.71-159.99 115.57-320.92 177.9-478.35l177.65 70.38c-61.47 154.92-120.38 313.34-175.09 470.73zm-224.92 719.02-184.05-51.21c45.37-163.1 94.89-327.54 147.18-488.69l181.71 58.95c-51.47 158.6-100.21 320.4-144.84 480.95zm-178.76 731.82-186.95-39.39c34.97-165.74 73.93-332.95 115.87-497.09l185.05 47.31c-41.21 161.5-79.56 326.07-113.97 489.17zm-131.72 741.79-189.07-27.4c24.28-167.6 52.55-337.02 83.88-503.46l187.78 35.41c-30.91 163.79-58.66 330.49-82.59 495.45zm-84.11 748.66-190.41-15.23c13.51-168.82 30.91-339.71 51.6-507.83l189.59 23.33c-20.43 165.48-37.49 333.6-50.78 499.73zm-35.97 752.52-191.01-2.99c2.64-169.33 9-340.96 18.95-510.12l190.68 11.17c-9.74 166.48-16.02 335.33-18.62 501.94zm-178.42 762.6c-8.22-169.2-12.9-340.87-13.89-510.29l191.02-1.08c.99 166.69 5.58 335.59 13.67 502.07l-190.8 9.3zm61.9 763.21c-19.13-168.29-34.85-339.31-46.71-508.38l190.5-13.38c11.69 166.35 27.19 334.64 46.02 500.21l-189.81 21.55zm110.9 757.67c-29.96-166.82-56.66-336.5-79.39-504.36l189.33-25.58c22.29 165.13 48.65 332.08 78.05 496.18l-187.99 33.76zm159.5 749.01c-40.55-164.52-78.17-332.13-111.67-498.21l187.21-37.79c32.98 163.4 69.99 328.32 109.94 490.21l-185.48 45.79zm207.38 737.2c-51.07-161.63-99.38-326.5-143.49-490.04l184.4-49.69c43.41 160.85 90.94 323.09 141.24 482.16l-182.15 57.57zm254.09 722.43c-61.34-158.12-120.03-319.57-174.48-479.77l180.84-61.47c53.59 157.65 111.38 316.55 171.8 472.2l-178.16 69.04zm299.45 704.91c-71.16-153.93-140.03-311.31-204.57-467.74l176.61-72.85c63.5 154.01 131.28 308.92 201.32 460.38l-173.36 80.21zm343.04 684.43c-80.47-148.73-159.08-301.36-233.44-453.76l171.67-83.8c73.19 149.98 150.5 300.27 229.71 446.62l-167.94 90.94zm385.5 661.14c-89.78-143.36-177.82-290.7-261.71-438.05l166.05-94.49c82.54 145.05 169.16 290.06 257.5 431.08l-161.84 101.46zm426.97 635.21c-98.87-137.34-196.13-278.8-289.2-420.47l159.69-104.84c91.54 139.42 187.29 278.63 284.55 413.72l-155.04 111.59zm466.83 606.56c-107.44-130.72-213.61-265.68-315.6-401.04l152.63-114.88c100.29 133.24 204.78 265.95 310.57 394.6l-147.6 121.32zm503.8 573.97c-115.57-123.45-230.02-251.06-340.14-379.27l144.92-124.49c108.34 126.18 220.93 251.75 334.68 373.17l-139.46 130.59zm539.86 540.55c-123.37-115.83-245.82-235.82-363.95-356.72l136.61-133.49c116.22 118.91 236.69 236.99 358.14 350.96l-130.8 139.25zm573.7 504.97c-130.5-107.61-260.45-219.55-386.24-332.69l127.74-142.02c123.75 111.28 251.62 221.44 380.05 327.32l-121.55 147.39zm605.13 467.26c-137.3-99.08-274.17-202.53-406.92-307.28l118.38-149.94c130.64 103.11 265.3 204.87 400.31 302.39l-111.77 154.83zm633.87 427.71c-143.27-90.17-286.55-184.61-425.75-280.71l108.52-157.17c136.99 94.54 277.97 187.47 418.96 276.21l-101.73 161.67zm660.11 386.49c-148.86-80.85-297.85-166.04-442.9-253.04l98.26-163.8c142.75 85.62 289.41 169.38 435.88 249.03l-91.24 167.81zm683.52 343.73a12096.463 12096.463 0 0 1-458.18-224.39l87.61-169.68c148.04 76.36 299.71 150.68 450.95 220.8l-80.38 173.27zm704.17 299.63c-157.91-61.34-316.55-126.87-471.6-194.79l76.66-175c152.58 66.87 308.71 131.37 464.11 191.71l-69.17 178.08zm8489.88 68.6-66.66-179.07c156.26-58 313.26-120.2 467.05-184.91l74.11 176.04c-156.31 65.79-316.12 129.03-474.5 187.94zm-7767.97 185.7c-161.58-51.17-324.12-106.53-483.15-164.44l65.4-179.46c156.52 57 316.46 111.46 475.45 161.84l-57.7 182.06zm7041.94 57.96-55.01-182.93c159.46-47.91 320.31-99.99 478-154.79l62.81 180.42c-160.2 55.71-323.86 108.6-485.8 157.3zm-6305.18 150.02c-164.48-40.81-330.31-85.7-492.67-133.44l53.85-183.32c159.81 46.97 322.95 91.16 484.79 131.37l-45.97 185.39zm5565.22 46.71-43.11-186.13c162.36-37.57 326.11-79.25 486.74-123.79l51.17 184.09c-163.41 45.23-329.84 87.61-494.8 125.83zm-4816.59 114.01c-166.57-30.25-334.9-64.53-500.21-101.85l42.03-186.34c162.75 36.75 328.41 70.47 492.29 100.21l-34.11 187.98zm4065.46 34.68-31.04-188.51c164.53-27.1 330.66-58.14 493.76-92.24l39.08 186.99c-165.78 34.67-334.59 66.18-501.8 93.76zm-3307.84 77.95c-168.2-19.56-338.45-42.98-505.87-69.73l30.12-188.64c164.79 26.32 332.26 49.39 497.74 68.61l-21.99 189.76zm2548.7 21.99-18.83-190.15c165.87-16.36 333.64-36.62 498.65-60.17l26.96 189.12c-167.73 23.89-338.19 44.49-506.78 61.2zm-1785.31 41.99c-169.34-8.74-340.7-21.25-509.39-37.23l18.01-190.15c165.96 15.71 334.55 28.01 501.2 36.58l-9.82 190.8zm1021.36 8.83-6.58-190.93c166.52-5.67 335.25-15.07 501.51-27.92l14.71 190.41c-168.98 13.12-340.44 22.64-509.64 28.44zm-407.36 7.01c-118.99 0-239.67-1.86-358.66-5.41l5.75-190.98c166.7 5.07 335.73 6.5 502.63 4.38l2.43 191.02c-50.47.6-101.68.99-152.15.99z" style="fill:#ff0048;fill-rule:nonzero"/><path class="fil5" d="m21693.12 14009.56-170.97-85.28c38.04-76.31 77.39-153.23 117.04-228.5l169.03 88.86c-38.91 74.11-77.65 149.77-115.1 224.92z"/><path class="fil3" d="M32132.5 30439.34c-1487.33 0-2930.25-291.27-4288.6-865.84-1311.98-554.92-2490.25-1349.34-3502.05-2361.14-1011.84-1011.84-1806.22-2190.11-2361.14-3502.1-574.52-1358.29-865.88-2801.22-865.88-4288.55 0-1487.33 291.36-2930.21 865.88-4288.59 554.92-1311.99 1349.3-2490.26 2361.14-3502.1 1011.8-1011.8 2190.07-1806.22 3502.05-2361.14 1358.35-574.53 2801.27-865.84 4288.6-865.84 910.47 0 1815.7 111.33 2690.45 330.88 849.48 213.22 1673.55 529.12 2449.31 939.03 1522.22 804.2 2854.33 1973.04 3852.32 3380.04l-124.53 88.43c-984.22-1387.61-2297.98-2540.25-3799.04-3333.37-764.85-404.16-1577.62-715.69-2415.2-925.92-862.68-216.47-1755.35-326.25-2653.31-326.25-1466.73 0-2889.65 287.25-4229.08 853.77-1293.76 547.21-2455.67 1330.59-3453.53 2328.45-997.82 997.82-1781.24 2159.77-2328.46 3453.53-566.52 1339.43-853.8 2762.27-853.8 4229.08 0 1466.73 287.28 2889.61 853.8 4229.04 547.22 1293.76 1330.64 2455.67 2328.46 3453.57 997.86 997.82 2159.77 1781.24 3453.53 2328.41 1339.43 566.57 2762.35 853.81 4229.08 853.81v152.8z"/><path class="fil5" d="M41254.05 6297.81c-395.11 0-753.51 157.13-1016.34 411.87l1016.34 1049.11V6297.81z"/><path class="fil3" d="m39997.82 8999.87 1191.69-844.59-1016.34-1049.02c-274.13 265.51-444.5 637.2-444.5 1049.02 0 314.77 99.82 606.13 269.15 844.59z"/><path class="fil8" d="M42978.07 7955.09c-9.18-50.74-21.17-100.64-35.28-149.43-5.97-21.03-12.68-41.81-19.74-62.41-15.54-45.15-32.81-89.35-52.2-132.37-8.49-18.83-17.32-37.31-26.49-55.67-20.43-40.51-42.68-80.03-66.32-118.38-10.56-16.8-21.16-33.5-32.46-49.87-27.49-40.43-56.79-79.51-88.17-117-12.34-14.84-25.06-29.56-38.09-43.98-28.96-32.33-59.65-63.28-91.72-93.02a1467.27 1467.27 0 0 0-43.42-38.74c-33.16-28.61-67.35-55.83-103.02-81.42a1180.587 1180.587 0 0 0-48.65-33.67c-37.4-24.76-75.88-48.01-115.36-69.3-17.66-9.66-35.97-18.92-54.32-27.84a1437.911 1437.911 0 0 0-143.97-61.03c-20.43-7.36-40.56-14.41-61.38-20.82-47.96-15.02-97-27.7-146.74-37.92-23.28-4.67-46.22-8.83-69.86-12.46-55.01-8.53-111.46-13.77-168.64-16.02-19.74-.73-39.82-1.47-59.6-1.47-16.23 0-29.26 12.99-29.26 29v1446.04l-103.02 73.07-281.88 199.76-634.3 449.56-160.16 113.45c-6.32 4.42-10.56 11.21-11.64 18.75-1.39 7.61.39 15.45 4.93 21.68l5.32 7.4c25.76 35.8 53.25 69.95 81.81 103.07 12.73 14.63 25.41 29.21 38.83 43.37 29.65 31.94 61.03 62.33 93.11 91.33 14.5 13.03 29.3 25.71 44.11 38.09 37.74 31.3 76.57 61.08 116.78 88.43 16.58 11.13 33.5 21.47 50.43 31.9 38.48 23.9 77.61 46.06 118.17 66.45 18.35 9.09 36.7 18.18 55.4 26.58 43.38 19.56 87.83 36.61 133.02 51.94 20.43 7.01 41.25 13.76 62.07 19.82 49.04 14.33 98.43 26.62 148.9 35.89 23.59 4.28 47.62 7.7 71.25 10.82 63.15 8.44 127.35 13.11 191.89 13.33l4.24.13c26.83 0 53.28-.82 80.08-2.21 71.63-3.81 142.19-12.85 211.31-26.62 36.32-7.27 72.34-16.1 107.96-25.97 108.65-30.3 212.7-72.29 309.75-125.09 99.12-53.85 191.19-118.82 274.78-192.76 47.31-41.55 91.76-86 133.36-133.18 73.71-83.85 138.99-175.79 192.62-274.78 52.94-97.22 94.88-201.11 125.22-309.79 9.87-35.59 18.7-71.6 26.11-108.18 13.41-68.82 22.59-139.42 26.49-211.27 1.38-26.58 2.12-53.24 2.12-80.12v-4.07c-.39-65.15-4.98-129.17-13.42-192.02-3.2-23.85-6.71-47.52-10.95-70.98z"/><path class="fil7" d="M29458.16 28708.48h5.28l5.2.82c53.58 8.96 107.43 13.5 160.07 13.5 535.31 0 970.85-435.49 970.85-970.76 0-410.22-271.53-788.53-660.28-919.99l-33.03-11.17-8.4-33.8c-71.63-288.33-242.13-549.73-480.03-735.9-238.29-186.47-533.58-289.15-831.56-289.15-450.99 0-870.25 223.23-1121.53 597.17l-35.45 52.72-52.8-35.36c-97.4-65.19-210.85-99.65-327.94-99.65-287.8 0-532.15 205.09-580.89 487.66l-8.83 51.29-52.03 1.52c-246.2 7.27-476.83 108.95-649.28 286.33-172.84 177.73-267.98 411.78-267.98 659.02 0 504.71 410.43 928.65 914.88 945.01l8.49.82 3045.26-.08zm170.55 141.67c-57.92 0-116.96-4.85-175.74-14.33h-3040.89c-5.29 0-10.35-.3-15.33-.95-570.8-20.43-1034.56-500.64-1034.56-1072.14 0-280.62 107.95-546.17 304.03-747.8 183.88-189.07 425.98-302.35 686.47-322.22 78.21-317.62 363.16-543.14 695.85-543.14 121.55 0 239.76 30.56 345.47 88.73 277.93-379.09 719.14-603.61 1192.25-603.61 326.24 0 649.46 112.28 909.99 316.2 251.01 196.43 433.42 469.56 516.48 772.12 203.06 75.93 377.58 209.81 506.36 388.92 135.96 189.08 207.81 410.44 207.81 640.11 0 605.52-492.67 1098.11-1098.19 1098.11zM24885.04 37117.88H28099v-5305.72h-3213.96z"/><path class="fil8" d="M25357.76 36232.4h2268.53v-3887.66h-2268.53zM26283.33 36755.56c0-115.35 93.41-208.83 208.73-208.83 115.22 0 208.68 93.48 208.68 208.83 0 115.37-93.46 208.86-208.68 208.86-115.32 0-208.73-93.49-208.73-208.86z"/><path class="fil5" d="M25646.95 33062.18h417.43v-417.45h-417.43zM26283.33 33062.18h417.44v-417.45h-417.44zM26919.67 33062.18h417.4v-417.45h-417.4zM25646.95 33650.78h417.43v-417.44h-417.43zM26283.33 33650.78h417.44v-417.44h-417.44zM26919.67 33650.78h417.4v-417.44h-417.4zM25646.95 34239.37h417.43v-417.43h-417.43zM26283.33 34239.37h417.44v-417.43h-417.44zM26919.67 34239.37h417.4v-417.43h-417.4zM25646.95 34828.01h417.43v-417.43h-417.43zM26283.33 34828.01h417.44v-417.43h-417.44zM25646.95 35421.73h417.43v-417.39h-417.43zM26283.33 35421.73h417.44v-417.39h-417.44zM26919.67 34828.01h417.4v-417.43h-417.4z"/><path class="fil3" d="M25646.95 35970.64h1690.11v-358.42h-1690.11z"/><path class="fil0" d="M25199.38 36376.34h2648.55l-28.61-4189h-2648.51l28.57 4189zm2712.66 63.85h-2775.9l-29.44-4316.53h2775.86l29.48 4316.53z"/><path class="fil3" d="M17975.38 11324.95h-941.94v-127.35h899.52l556.69-417.44h896.4v127.34h-853.93zM14916.22 9622.53h-127.35V7927.99l554.1-1285.54 116.92 50.43-543.67 1261.38zM18728.03 10400.89h-1694.59v-127.39h1668.31l1261.38-543.67 50.39 116.96zM15826.95 9622.53h-127.39V8608.65l-434.37-609.72 103.71-73.84 458.05 642.83z"/><path class="fil3" d="M15045.69 9622.53c0 106.7-86.49 193.14-193.14 193.14-106.66 0-193.14-86.44-193.14-193.14 0-106.66 86.48-193.1 193.14-193.1 106.65 0 193.14 86.44 193.14 193.1zM15956.41 9622.53c0 106.7-86.48 193.14-193.14 193.14-106.65 0-193.18-86.44-193.18-193.14 0-106.66 86.53-193.1 193.18-193.1 106.66 0 193.14 86.44 193.14 193.1zM17226.58 11261.27c0 106.7-86.44 193.14-193.14 193.14-106.65 0-193.14-86.44-193.14-193.14 0-106.65 86.49-193.09 193.14-193.09 106.7 0 193.14 86.44 193.14 193.09zM20181.47 9788.31c0 106.66-86.45 193.14-193.1 193.14-106.7 0-193.14-86.48-193.14-193.14 0-106.65 86.44-193.14 193.14-193.14 106.65 0 193.1 86.49 193.1 193.14zM19579.19 10843.83c0 106.65-86.44 193.14-193.14 193.14-106.61 0-193.05-86.49-193.05-193.14 0-106.66 86.44-193.14 193.05-193.14 106.7 0 193.14 86.48 193.14 193.14zM17226.58 10337.22c0 106.65-86.44 193.09-193.14 193.09-106.65 0-193.14-86.44-193.14-193.09 0-106.66 86.49-193.14 193.14-193.14 106.7 0 193.14 86.48 193.14 193.14zM13876.76 9622.53h-127.34v-1033.1l-840.22-1493.91 110.99-62.46 856.57 1523z"/><path class="fil3" d="M14006.19 9622.53c0 106.7-86.49 193.14-193.1 193.14-106.7 0-193.14-86.44-193.14-193.14 0-106.66 86.44-193.1 193.14-193.1 106.61 0 193.1 86.44 193.1 193.1zM13157.83 7064.31c0 106.66-86.48 193.14-193.14 193.14-106.69 0-193.14-86.48-193.14-193.14 0-106.65 86.45-193.14 193.14-193.14 106.66 0 193.14 86.49 193.14 193.14zM15510.14 7962.01c0 106.66-86.44 193.1-193.05 193.1-106.7 0-193.14-86.44-193.14-193.1 0-106.65 86.44-193.14 193.14-193.14 106.61 0 193.05 86.49 193.05 193.14zM16534.71 9622.53h-127.31V7936.52l874.41-916.18 92.12 87.95-839.22 879.22z"/><path class="fil3" d="M16664.17 9622.53c0 106.7-86.44 193.14-193.14 193.14-106.65 0-193.09-86.44-193.09-193.14 0-106.66 86.44-193.1 193.09-193.1 106.7 0 193.14 86.44 193.14 193.1zM17451.71 7106.08c0 106.66-86.48 193.1-193.14 193.1-106.7 0-193.14-86.44-193.14-193.1 0-106.65 86.44-193.14 193.14-193.14 106.66 0 193.14 86.49 193.14 193.14zM19576.98 12977.24l-879.17-839.18h-1635.06v-127.38h1686.05l916.14 874.45z"/><path class="fil3" d="M17062.75 12267.49c-106.66 0-193.14-86.49-193.14-193.14 0-106.66 86.48-193.14 193.14-193.14 106.65 0 193.14 86.48 193.14 193.14 0 106.65-86.49 193.14-193.14 193.14zM19579.19 13054.98c-106.65 0-193.14-86.48-193.14-193.14 0-106.65 86.49-193.14 193.14-193.14 106.66 0 193.14 86.49 193.14 193.14 0 106.66-86.48 193.14-193.14 193.14zM14880.29 16576.12l-117-50.38 543.71-1261.38v-1668.27h127.35v1694.54zM14854.32 15293.58l-458.05-642.92v-1054.57h127.35v1013.88l434.41 609.67zM12941.45 16198.24l-92.16-87.95 839.18-879.22v-1634.98h127.39v1686.02z"/><path class="fil3" d="M15177.53 13596.09c0-106.7 86.53-193.18 193.14-193.18 106.66 0 193.19 86.48 193.19 193.18 0 106.61-86.53 193.1-193.19 193.1-106.61 0-193.14-86.49-193.14-193.1zM14266.85 13596.09c0-106.7 86.44-193.18 193.14-193.18 106.66 0 193.14 86.48 193.14 193.18 0 106.61-86.48 193.1-193.14 193.1-106.7 0-193.14-86.49-193.14-193.1zM13559.09 13596.09c0-106.7 86.44-193.18 193.1-193.18 106.65 0 193.09 86.48 193.09 193.18 0 106.61-86.44 193.1-193.09 193.1-106.66 0-193.1-86.49-193.1-193.1zM17203.04 16185.52l-856.58-1522.96v-1066.47h127.39v1033.1l840.21 1493.91z"/><path class="fil3" d="M16216.99 13596.09c0-106.7 86.49-193.18 193.14-193.18 106.66 0 193.18 86.48 193.18 193.18 0 106.61-86.52 193.1-193.18 193.1-106.65 0-193.14-86.49-193.14-193.1zM17065.43 16154.31c0-106.7 86.44-193.14 193.14-193.14 106.66 0 193.14 86.44 193.14 193.14 0 106.61-86.48 193.09-193.14 193.09-106.7 0-193.14-86.48-193.14-193.09zM14628.72 16550.98c0-106.7 86.44-193.19 193.09-193.19 106.66 0 193.1 86.49 193.1 193.19 0 106.61-86.44 193.09-193.1 193.09-106.65 0-193.09-86.48-193.09-193.09zM14713.04 15256.57c0-106.62 86.48-193.1 193.14-193.1 106.7 0 193.14 86.48 193.14 193.1 0 106.7-86.44 193.14-193.14 193.14-106.66 0-193.14-86.44-193.14-193.14zM18686.34 13392.65l-609.72-434.41h-1013.87v-127.35h1054.6l642.88 458.05z"/><path class="fil3" d="M17062.75 12701.47c-106.66 0-193.14 86.4-193.14 193.09 0 106.66 86.48 193.1 193.14 193.1 106.65 0 193.14-86.44 193.14-193.1 0-106.69-86.49-193.09-193.14-193.09zM18723.26 13147.7c-106.65 0-193.09 86.44-193.09 193.09 0 106.66 86.44 193.1 193.09 193.1 106.7 0 193.14-86.44 193.14-193.1 0-106.65-86.44-193.09-193.14-193.09zM13220.68 10335.18h-941.89l-556.78-417.49h-853.93v-127.34h896.39l556.74 417.48h899.47z"/><path class="fil3" d="M13027.59 10271.51c0 106.61 86.44 193.09 193.09 193.09 106.66 0 193.1-86.48 193.1-193.09 0-106.7-86.44-193.14-193.1-193.14-106.65 0-193.09 86.44-193.09 193.14zM10674.94 9854.02c0 106.7 86.48 193.1 193.14 193.1 106.65 0 193.13-86.4 193.13-193.1 0-106.66-86.48-193.1-193.13-193.1-106.66 0-193.14 86.44-193.14 193.1zM13220.68 11305.51h-1694.54l-1285.53-554.14 50.43-116.96 1261.42 543.71h1668.22zM-15081.8 8660.46c0 106.65 86.49 193.09 193.14 193.09 106.66 0 193.14-86.44 193.14-193.09 0-106.66-86.48-193.19-193.14-193.19-106.65 0-193.14 86.53-193.14 193.19z"/><path class="fil3" d="M13027.59 11241.8c0 106.65 86.44 193.13 193.09 193.13 106.66 0 193.1-86.48 193.1-193.13 0-106.66-86.44-193.14-193.1-193.14-106.65 0-193.09 86.48-193.09 193.14zM10718.91 13887.14l-87.91-92.11 916.09-874.45h1686.06v127.39h-1635.02z"/><path class="fil3" d="M13233.15 13177.44c106.66 0 193.14-86.49 193.14-193.14 0-106.66-86.48-193.14-193.14-193.14-106.65 0-193.1 86.48-193.1 193.14 0 106.65 86.45 193.14 193.1 193.14zM10716.71 13964.93c106.65 0 193.14-86.49 193.14-193.14 0-106.7-86.49-193.1-193.14-193.1-106.66 0-193.14 86.4-193.14 193.1 0 106.65 86.48 193.14 193.14 193.14zM11609.56 12542.48l-73.85-103.75 642.83-458.05h1054.61v127.39h-1013.83z"/><path class="fil3" d="M13233.15 11851.21c106.66 0 193.14 86.49 193.14 193.14 0 106.66-86.48 193.14-193.14 193.14-106.65 0-193.1-86.48-193.1-193.14 0-106.65 86.45-193.14 193.1-193.14zM11572.63 12297.44c106.66 0 193.14 86.49 193.14 193.14 0 106.66-86.48 193.14-193.14 193.14-106.65 0-193.14-86.48-193.14-193.14 0-106.65 86.49-193.14 193.14-193.14zM12771.55 16112.54c0-106.66 86.45-193.14 193.14-193.14 106.66 0 193.14 86.48 193.14 193.14 0 106.65-86.48 193.14-193.14 193.14-106.69 0-193.14-86.49-193.14-193.14z"/><path class="fil7" d="M13247.65 13652.93h3785.82v-4044.1h-3785.82z"/><path class="fil10" d="M13748.72 13117.66h2783.68v-2973.6h-2783.68z"/><path class="fil8" d="M14006.19 10538.49h218.33v-193.21h-218.33zM14320.22 10538.49h218.31v-193.21h-218.31zM14634.21 10538.49h218.34v-193.21h-218.34zM14948.25 10538.49h218.34v-193.21h-218.34zM15262.24 10538.49h218.34v-193.21h-218.34zM15715.44 10538.49h218.31v-193.21h-218.31zM14006.19 12265.58h218.33v-193.21h-218.33zM14320.22 12265.58h218.31v-193.21h-218.31zM14006.19 12564.73h218.33v-193.23h-218.33zM14320.22 12564.73h218.31v-193.23h-218.31zM14634.21 12265.58h218.34v-193.21h-218.34zM14948.25 12265.58h218.34v-193.21h-218.34zM15401.41 12265.58h218.37v-193.21h-218.37zM15715.44 12265.58h218.31v-193.21h-218.31zM14006.19 10843.83h218.33v-193.21h-218.33zM14320.22 10843.83h218.31v-193.21h-218.31zM14634.21 10843.83h218.34v-193.21h-218.34zM14948.25 10843.83h218.34v-193.21h-218.34zM15262.24 10843.83h218.34v-193.21h-218.34zM15576.24 10843.83h218.33v-193.21h-218.33zM14006.19 12943.09h218.33v-193.21h-218.33zM14320.22 12943.09h218.31v-193.21h-218.31zM14634.21 12943.09h218.34v-193.21h-218.34zM15087.46 12943.09h218.3v-193.21h-218.3zM15401.41 12943.09h218.37v-193.21h-218.37zM15715.44 12943.09h218.31v-193.21h-218.31zM14006.19 11149.16h218.33v-193.21h-218.33zM14006.19 11539.21h314.04v-277.92h-314.04zM14006.19 11945.27h314.04v-277.92h-314.04zM16033.5 10538.49h218.34v-193.21h-218.34zM16033.5 12265.58h218.34v-193.21h-218.34zM16033.5 12564.73h218.34v-193.23h-218.34zM16033.5 10843.83h218.34v-193.21h-218.34zM16033.5 12943.09h218.34v-193.21h-218.34zM16033.5 11149.16h218.34v-193.21h-218.34zM15963.9 11539.21h314.01v-277.92h-314.01zM15936.11 11945.27h314.01v-277.92h-314.01zM14617.68 11945.27h314.01v-277.92h-314.01zM15160 11945.27h314.04v-277.92H15160zM14634.21 12649.4h314.01v-277.89h-314.01zM15148.71 12649.4h314v-277.89h-314zM15663.24 12649.4h314.02v-277.89h-314.02zM14459.38 11149.16h218.34v-193.21h-218.34zM14773.42 11149.16h218.34v-193.21h-218.34zM15365.78 11149.16h218.34v-193.21h-218.34zM15679.78 11149.16h218.33v-193.21h-218.33zM14429.39 11496.88h218.32v-193.22h-218.32zM14743.38 11496.88h218.32v-193.22h-218.32zM15057.42 11496.88h218.32v-193.22h-218.32zM15371.45 11496.88h218.29v-193.22h-218.29zM15657.61 11496.88h218.29v-193.22h-218.29zM15523.69 11902.94h218.32v-193.21h-218.32z"/><path class="fil3" d="M15617.23 6653.14c0 111.21-90.08 201.33-201.32 201.33-111.16 0-201.28-90.12-201.28-201.33 0-111.2 90.12-201.32 201.28-201.32 111.24 0 201.32 90.12 201.32 201.32zM21840.47 2463.89v491.12h4652.62v5800.38h454.59v-6291.5z"/><path class="fil8" d="M25462.38 9601.71h-4452.39V3100.06h5338.06v5521.23z"/><path class="fil3" d="M26348.05 8621.29h-885.67v980.42z"/><path class="fil7" d="M22634.45 4045.93h3229.08v-63.68h-3229.08zM21433.28 4393.47h4430.27v-63.71h-4430.27zM21433.28 4781.57h4430.27v-63.68h-4430.27zM21433.28 7025.31h4430.27v-63.67h-4430.27zM21433.28 7413.45h4430.27v-63.66h-4430.27zM21433.28 7823.67h4430.27v-63.71h-4430.27zM21433.28 8211.77h4430.27v-63.68h-4430.27zM21433.28 8624.41h3551.83v-63.68h-3551.83z"/><path class="fil10" d="M21433.28 6592.72h2815.69V5206.87h-2815.69z"/><path class="fil5" d="M24499.58 6592.72h1274.98V5206.87h-1274.98z"/><path class="fil7" d="M50774.73 14535.82h-1252.68l-848.39-848.48h-1192.52l-1034.52-1034.39h-1410.24l-1034.09 1034.39h-2528.48v-127.35h2475.67L44984 12525.6h1515.43l1034.52 1034.39h1192.52l848.39 848.48h1147.5l848.39-848.48h1794.62v127.35h-1741.81z"/><path class="fil7" d="M43940.39 13400.57c-119.47 0-217.29 97.44-217.29 217.3 0 119.81 97.82 217.24 217.29 217.24 119.9 0 217.29-97.43 217.29-217.24 0-119.86-97.39-217.3-217.29-217.3zm0 510.94c-161.89 0-293.48-131.71-293.48-293.64 0-161.98 131.59-293.74 293.48-293.74 161.89 0 293.91 131.76 293.91 293.74 0 161.93-132.02 293.64-293.91 293.64z"/><path class="fil5" d="M45250.21 12589.23c0 141.11-114.28 255.51-255.39 255.51-141.11 0-255.38-114.4-255.38-255.51 0-141.07 114.27-255.47 255.38-255.47s255.39 114.4 255.39 255.47z"/><path class="fil3" d="M46723.21 12589.23c0 141.11-114.27 255.51-255.38 255.51s-255.39-114.4-255.39-255.51c0-141.07 114.28-255.47 255.39-255.47 141.11 0 255.38 114.4 255.38 255.47z"/><path class="fil7" d="M47507.55 13406.37c-119.9 0-217.3 97.48-217.3 217.3 0 119.81 97.4 217.25 217.3 217.25s217.29-97.44 217.29-217.25c0-119.82-97.39-217.3-217.29-217.3zm0 510.94c-161.89 0-293.48-131.71-293.48-293.64 0-161.98 131.59-293.7 293.48-293.7 161.88 0 293.9 131.72 293.9 293.7 0 161.93-132.02 293.64-293.9 293.64z"/><path class="fil5" d="M48971.89 13623.67c0 141.11-114.27 255.47-255.38 255.47s-255.38-114.36-255.38-255.47c0-141.12 114.27-255.52 255.38-255.52s255.38 114.4 255.38 255.52z"/><path class="fil3" d="M49794.32 14472.15c0 141.11-114.71 255.51-255.82 255.51s-255.38-114.4-255.38-255.51c0-141.11 114.27-255.47 255.38-255.47s255.82 114.36 255.82 255.47zM50983.8 14472.15c0 141.11-114.27 255.51-255.38 255.51s-255.39-114.4-255.39-255.51c0-141.11 114.28-255.47 255.39-255.47 141.11 0 255.38 114.36 255.38 255.47zM51844.75 13617.82c0 141.11-114.27 255.52-255.38 255.52s-255.39-114.41-255.39-255.52c0-141.07 114.28-255.47 255.39-255.47 141.11 0 255.38 114.4 255.38 255.47zM41821.65 13617.82c0 141.11-114.27 255.52-255.38 255.52s-255.43-114.41-255.43-255.52c0-141.07 114.32-255.47 255.43-255.47s255.38 114.4 255.38 255.47z"/><path class="fil5" d="M53620.75 13617.82c0 141.11-114.27 255.52-255.38 255.52s-255.82-114.41-255.82-255.52c0-141.07 114.71-255.47 255.82-255.47s255.38 114.4 255.38 255.47z"/><path class="fil7" d="M58595.12 12546.85H57079.7l-1034.53-1034.43h-1192.51l-848.4-848.49h-1147.49l-848.4 848.49h-1794.62v-127.31h1741.81l848.83-848.57h1252.68l848.4 848.57h1192.51l1034.09 1034.35h1410.68l1034.09-1034.35h1995.89v127.31h-1943.08z"/><path class="fil7" d="M59638.74 11237.29c-119.91 0-217.3 97.48-217.3 217.3 0 119.77 97.39 217.29 217.3 217.29 119.46 0 217.29-97.52 217.29-217.29 0-119.82-97.83-217.3-217.29-217.3zm0 510.99c-161.89 0-293.91-131.76-293.91-293.69s132.02-293.7 293.91-293.7c161.88 0 293.47 131.77 293.47 293.7 0 161.93-131.59 293.69-293.47 293.69z"/><path class="fil3" d="M58328.92 12483.18c0-141.15 114.27-255.51 255.38-255.51s255.39 114.36 255.39 255.51c0 141.11-114.28 255.47-255.39 255.47-141.11 0-255.38-114.36-255.38-255.47z"/><path class="fil5" d="M56855.91 12483.18c0-141.15 114.28-255.51 255.39-255.51 141.11 0 255.38 114.36 255.38 255.51 0 141.11-114.27 255.47-255.38 255.47s-255.39-114.36-255.39-255.47z"/><path class="fil7" d="M56071.58 11231.49c-119.9 0-217.29 97.48-217.29 217.3 0 119.81 97.39 217.29 217.29 217.29 119.9 0 217.29-97.48 217.29-217.29 0-119.82-97.39-217.3-217.29-217.3zm0 510.99c-162.32 0-293.91-131.76-293.91-293.69 0-161.98 131.59-293.7 293.91-293.7 161.89 0 293.47 131.72 293.47 293.7 0 161.93-131.58 293.69-293.47 293.69z"/><path class="fil3" d="M54606.8 11448.79c0-141.11 114.7-255.47 255.82-255.47 141.11 0 255.38 114.36 255.38 255.47 0 141.06-114.27 255.47-255.38 255.47-141.12 0-255.82-114.41-255.82-255.47zM53784.81 10600.26c0-141.07 114.7-255.47 255.81-255.47s255.39 114.4 255.39 255.47c0 141.11-114.28 255.47-255.39 255.47-141.11 0-255.81-114.36-255.81-255.47z"/><path class="fil5" d="M52595.32 10600.26c0-141.07 114.28-255.47 255.39-255.47 141.11 0 255.38 114.4 255.38 255.47 0 141.11-114.27 255.47-255.38 255.47s-255.39-114.36-255.39-255.47z"/><path class="fil3" d="M51734.37 11454.59c0-141.11 114.28-255.52 255.39-255.52 141.11 0 255.38 114.41 255.38 255.52 0 141.06-114.27 255.51-255.38 255.51s-255.39-114.45-255.39-255.51zM61225.15 11454.59c0-141.11 114.27-255.52 255.38-255.52s255.39 114.41 255.39 255.52c0 141.06-114.28 255.51-255.39 255.51-141.11 0-255.38-114.45-255.38-255.51z"/><path class="fil7" d="M50213.75 11237.29c-119.46 0-217.29 97.48-217.29 217.3 0 119.77 97.83 217.29 217.29 217.29 119.91 0 217.3-97.52 217.3-217.29 0-119.82-97.39-217.3-217.3-217.3zm0 510.99c-161.88 0-293.47-131.76-293.47-293.69s131.59-293.7 293.47-293.7c161.89 0 293.91 131.77 293.91 293.7 0 161.93-132.02 293.69-293.91 293.69z"/><path class="fil7" d="m42672.9 13576.18-89.25-90.94 2341.92-2296.86h2866.36l953.58 1101.4h5348.36l1321.5 856.14-68.82 106.88-1290.34-835.67h-5368.7l-953.58-1101.4h-2756.85z"/><path class="fil5" d="M42883.88 13617.82c0 141.11-114.28 255.52-255.43 255.52-141.07 0-255.38-114.41-255.38-255.52 0-141.07 114.31-255.47 255.38-255.47 141.15 0 255.43 114.4 255.43 255.47z"/><path class="fil3" d="M45248.04 11247.03c0 141.11-114.27 255.47-255.38 255.47s-255.38-114.36-255.38-255.47 114.27-255.51 255.38-255.51 255.38 114.4 255.38 255.51zM47989.31 11276.03c0 141.11-114.27 255.47-255.38 255.47s-255.38-114.36-255.38-255.47c0-141.06 114.27-255.47 255.38-255.47s255.38 114.41 255.38 255.47zM48971.89 12332.59c0 141.11-114.27 255.47-255.38 255.47s-255.38-114.36-255.38-255.47 114.27-255.47 255.38-255.47 255.38 114.36 255.38 255.47z"/><path class="fil7" d="M54065.3 12115.34c-119.47 0-216.86 97.44-216.86 217.25s97.39 217.29 216.86 217.29c120.33 0 217.29-97.48 217.29-217.29 0-119.81-96.96-217.25-217.29-217.25zm0 510.94c-161.89 0-293.48-131.76-293.48-293.69s131.59-293.69 293.48-293.69c162.32 0 293.91 131.76 293.91 293.69s-131.59 293.69-293.91 293.69z"/><path class="fil3" d="M55636.56 13193.49c0 141.07-114.27 255.48-255.38 255.48-141.12 0-255.39-114.41-255.39-255.48 0-141.11 114.27-255.51 255.39-255.51 141.11 0 255.38 114.4 255.38 255.51z"/><path class="fil7" d="m43705.35 12418.64-1122-1122.09 89.94-90.03 1122.09 1122.04z"/><path class="fil5" d="M42875.05 11276.03c0 141.11-114.28 255.47-255.39 255.47-141.11 0-255.42-114.36-255.42-255.47 0-141.06 114.31-255.47 255.42-255.47 141.11 0 255.39 114.41 255.39 255.47z"/><path class="fil7" d="M13267.56 26448.55c0 476.87-386.58 863.46-863.46 863.46-476.87 0-863.41-386.59-863.41-863.46 0-476.88 386.54-863.46 863.41-863.46 476.88 0 863.46 386.58 863.46 863.46zm474.02 244.73v-383.85h-221.19c-8.61-69.52-23.54-137.13-44.23-202.15l179.41-103.58-191.97-332.39-165 95.27a1132.998 1132.998 0 0 0-151.54-162.53l89.16-154.53-332.39-191.89-83.97 145.44a1118.62 1118.62 0 0 0-223.79-62.98v-160.8h-383.85v160.8c-78.35 13.46-153.84 35.02-225.78 63.76l-79.99-138.55-332.43 191.97 85.62 148.21c-57.05 50.38-108.91 106.39-154.71 167.25l-152.62-88.08-191.93 332.38 169.25 97.74c-20.91 67.53-35.63 137.78-43.55 210.07h-204v383.85h227.51c15.36 64.97 36.44 127.78 62.54 187.86l-204.09 117.87 191.97 332.43 223.57-129.08c41.69 44.5 86.96 85.58 135.4 122.85l-131.63 227.98 332.48 191.89 139.2-241.15c54.5 17.53 110.81 31.08 168.51 40.17v279.32h383.9v-284.64a1112.699 1112.699 0 0 0 165.57-44.2l140.16 242.84 332.43-191.98-137.56-238.24c46.01-37.35 89.08-78.22 128.64-122.24l230.63 133.11 191.97-332.39-218.16-125.96a1111.241 1111.241 0 0 0 57.01-181.85h239.45z"/><path class="fil7" d="M12404.1 27038.14c-325.59 0-589.59-264-589.59-589.59 0-325.64 264-589.64 589.59-589.64 325.64 0 589.6 264 589.6 589.64 0 325.59-263.96 589.59-589.6 589.59zm0-1302.81c-393.85 0-713.17 319.32-713.17 713.22 0 393.85 319.32 713.17 713.17 713.17 393.86 0 713.18-319.32 713.18-713.17 0-393.9-319.32-713.22-713.18-713.22z"/><path class="fil3" d="M29162.08 34400.78c-141.98 141.98-142.2 372.3.04 514.54 142.28 142.19 372.65 142.06 514.58.13 142.23-142.24 142.32-372.56.04-514.75-142.23-142.24-372.47-142.15-514.66.08z"/><path class="fil3" d="m29189.04 33460.15 29.4 497.95c247.85-34.71 498.82 35.93 678.45 215.56 186.3 186.35 255.21 449.48 210.85 706.03l496.91 35.89c68.7-405.42-40.56-820.52-334.9-1114.82-286.11-286.12-686.25-397.62-1080.71-340.61z"/><path class="fil3" d="m29142.34 32673 29.52 498.17c480.9-74.19 970.5 59.26 1319.34 408.14 357.97 357.97 489.13 863.98 401.99 1356.83l497.14 35.66c111.24-641.53-60.43-1299.51-526.31-1765.35-455.28-455.28-1094.21-629.8-1721.68-533.45zM54331.07 18656.51h885.82v-584.89h-885.82z"/><path class="fil8" d="M54331.07 17876.72h885.82v-584.93h-885.82z"/><path class="fil7" d="M54331.07 20706.86h885.82V18880.4h-885.82z"/><path class="fil3" d="M53213.01 18656.51h885.81v-584.89h-885.81zM53213.01 17876.72h885.81v-584.93h-885.81z"/><path class="fil8" d="M53213.01 17102.69h885.81v-584.94h-885.81zM53213.01 16322.9h885.81v-584.91h-885.81z"/><path class="fil10" d="M53213.01 20706.86h885.81V18880.4h-885.81z"/><path class="fil3" d="M55478.57 19450.84h885.83v-584.94h-885.83z"/><path class="fil8" d="M55478.57 18671.01h885.83v-584.94h-885.83z"/><path class="fil7" d="M56484.09 20706.86h885.82v-584.95h-885.82zM55478.57 20706.86h885.83V19674.7h-885.83zM-12231.17 31159.27l-94.27-85.58 147.04-162.02 98.99 5.8 20.82 29.26-45.49 32.43 19.95 18.09-147.04 162.02zm290.71 172.49-147.86-207.38 103.66-73.98 147.91 207.43-103.71 73.93zm-547.43 110.42-94.32-85.58 171.15-188.59 94.32 85.57-171.15 188.6zm769.27 200.63-147.91-207.38 103.67-73.93 147.91 207.33-103.67 73.98zm2029.7 21.25-79.99-99.08 198.2-159.98 79.95 99.08-198.16 159.98zm-3055.74 61.03-94.32-85.57 171.19-188.6 94.32 85.54-171.19 188.63zm2758.5 178.95-80.04-99.13 198.2-159.94 79.95 99.13-198.11 159.94zm-1510.67 49.82-147.86-207.38 103.67-73.93 147.9 207.38-103.71 73.93zm-1504.56 54.15-94.32-85.62 171.15-188.6 94.28 85.62-171.11 188.6zm2717.9 136-80.04-99.12 198.21-159.94 79.99 99.03-198.16 160.03zm-991.59 120.9-147.82-207.34 103.67-73.93 147.91 207.34-103.76 73.93zm-1983.08 26.01-94.27-85.62 171.1-188.59 94.32 85.62-171.15 188.59zm2677.38 93.02-80.03-99.08 198.25-159.98 79.94 99.08-198.16 159.98zm-5455.31 52.07-210.71-143.05 71.55-105.4 210.71 143.1-71.55 105.35zm-391.26 73.68-94.27-85.58 171.15-188.59 94.27 85.66-171.15 188.51zm2912.42 64.1-94.32-85.57 171.24-188.6 94.28 85.58-171.2 188.59zm2461.69 2.21-147.86-207.38 103.71-73.98 147.86 207.43-103.71 73.93zm175.13 47.92-79.94-99.13 198.2-159.94 79.95 99.08-198.21 159.99zm-4841.91 26.7-210.71-143.05 71.5-105.4 210.76 143.1-71.55 105.35zm-964.14 141.98-94.28-85.58 171.2-188.59 94.32 85.62-171.24 188.55zm2912.51 64.15-94.32-85.58 171.19-188.63 94.28 85.61-171.15 188.6zm-1632.34 8.48-210.67-143.06 71.55-105.35 210.71 143.06-71.59 105.35zm-1536.9 210.28-94.32-85.61 171.24-188.56 94.28 85.54-171.2 188.63zm1853.01 4.38-210.71-143.06 71.51-105.4 210.71 143.1-71.51 105.36zm1059.5 59.73-94.32-85.58 171.15-188.59 94.32 85.58-171.15 188.59zm-743.47 154.88-210.67-143.11 71.51-105.35 210.75 143.1-71.59 105.36zm-2425.81 63.88-94.31-85.57 171.15-188.6 94.32 85.58-171.16 188.59zm2912.47 64.15-94.28-85.57 171.2-188.6 94.27 85.58-171.19 188.59zm-170.59 86.57-210.71-143.05 71.55-105.36 210.71 143.06-71.55 105.35zm-2998.69 132.2-94.27-85.62 171.19-188.59 94.28 85.61-171.2 188.6zm-256.77 282.87-94.27-85.58 171.19-188.59 94.32 85.57-171.24 188.6zm-256.77 282.87-94.27-85.58 171.15-188.59 94.27 85.62-171.15 188.55zm-256.77 282.91-94.28-85.57 171.16-188.6 94.32 85.54-171.2 188.63z"/><path class="fil6" d="M19800.25 26846.07c0 146-118.38 264.34-264.43 264.34-145.98 0-264.37-118.34-264.37-264.34 0-146.09 118.39-264.43 264.37-264.43 146.05 0 264.43 118.34 264.43 264.43z"/><path class="fil3" d="M23810.03 30071.88c0 146.05-118.38 264.39-264.39 264.39-146.04 0-264.38-118.34-264.38-264.39 0-146.04 118.34-264.39 264.38-264.39 146.01 0 264.39 118.35 264.39 264.39zM8454.74 31952.9c0 146.05-118.39 264.39-264.43 264.39-146.01 0-264.35-118.34-264.35-264.39 0-146 118.34-264.43 264.35-264.43 146.04 0 264.43 118.43 264.43 264.43z"/><path class="fil5" d="M10739.08 29468.1c0 146.09-118.34 264.43-264.38 264.43-146.05 0-264.39-118.34-264.39-264.43 0-146 118.34-264.35 264.39-264.35 146.04 0 264.38 118.35 264.38 264.35z"/><path class="fil3" d="M11915.41 31087.67c0 146-118.39 264.39-264.39 264.39-146.04 0-264.43-118.39-264.43-264.39 0-146.05 118.39-264.43 264.43-264.43 146 0 264.39 118.38 264.39 264.43zM13430.06 29897.45c0 146.04-118.35 264.43-264.39 264.43-146 0-264.39-118.39-264.39-264.43 0-146 118.39-264.39 264.39-264.39 146.04 0 264.39 118.39 264.39 264.39z"/><path style="fill:#355695;fill-rule:nonzero" d="M28538.08 29878.7v-1811.58h-1016.12v1811.58h-476.83l984.87 984.92 984.96-984.92z"/><path class="fil3" d="M10368.82 20800.83h1436.21v-805.63h-1436.21v-378.01l-780.87 780.83 780.87 780.87zM12174.47 18697.29h-1436.21v805.58h1436.21v378.06l780.83-780.83-780.83-780.87z"/><path class="fil8" d="m-22771.22 12320.29 898.14-2172.81 504.51 2296.34z"/><path class="fil3" d="m-21873.08 10147.48 896.45 1663.25-391.94 633.09z"/><path class="fil8" d="m-18830.45 14283.54 898.17-2172.8 504.49 2296.34z"/><path class="fil3" d="m-17932.28 12110.74 896.4 1663.2-391.91 633.14z"/><path class="fil10" d="m-21440.53 15020 1305.89-3159.1 733.56 3338.74z"/><path class="fil3" d="m-20134.64 11860.9 1303.32 2418.18-569.76 920.56z"/><path class="fil7" d="M-21815.66 9925.04h-63.66v-708.58l1440.81-963.97 35.41 52.94-1412.56 945.01zM-20046.38 11753.33h-63.63v-708.45l1963.08-1328.04 35.67 52.72-1935.12 1309.08zM-17965.95 11995.73h-63.68v-709.1l1215.42-772.26 34.19 53.76-1185.93 753.52zM-20185.03 8078.83l-266.94-125.4 47.31-28.96 221.62 104.45 8.75-245.21 46.75-28.57-10.18 294.77 270.02 126.66-47.31 28.91-224.7-105.66-8.52 248.16-47.32 28.91zM-19845.97 7871.66l-266.99-125.44 47.36-28.91 221.58 104.4 8.83-245.17 46.7-28.56-10.17 294.77 270.01 126.65-47.31 28.92-224.65-105.62-8.57 248.11-47.27 28.87zM-19359.75 7576.11c-43.02-70.38-136-166.78-219.93-115.48-82.76 50.6-40.51 177.94 1.43 246.64 46.14 75.49 137.3 165.22 219.54 115.01 81.68-49.96 42.68-174.62-1.04-246.17zm40.39-26.23c60.95 99.69 84.36 249.41-15.93 310.66-100.29 61.25-222.79-27.88-283.74-127.56-53.67-87.87-91.07-245.26 15.98-310.66 107-65.36 230.06 39.65 283.69 127.56zM-19320.14 7314.45l-23.37-38.35 69.82-42.68 258.15 422.47-41.68 25.49-234.74-384.16zM-17911.67 9582.13l-266.99-125.44 47.36-28.91 221.57 104.4 8.79-245.17 46.75-28.57-10.17 294.78 270.01 126.65-47.35 28.92-224.65-105.62-8.49 248.11-47.35 28.92zM-17572.62 9374.97l-266.94-125.44 47.31-28.92 221.62 104.41 8.75-245.17 46.79-28.57-10.17 294.77 269.97 126.66-47.36 28.87-224.65-105.57-8.48 248.06-47.36 28.96zM-17086.44 9079.46c-43.02-70.43-135.91-166.87-219.84-115.53-82.85 50.56-40.6 177.95 1.43 246.68 46.09 75.45 137.25 165.18 219.5 114.93 81.68-49.91 42.63-174.57-1.09-246.08zm40.48-26.28c60.9 99.69 84.27 249.37-15.93 310.62-100.3 61.29-222.84-27.83-283.74-127.52-53.72-87.87-91.12-245.25 15.93-310.66 107.04-65.4 230.02 39.69 283.74 127.56zM-16606.75 9023.84l23.38 38.3-265.3 162.11 46.19-292.78c8.22-49.87 19.22-105.32-8.31-150.42-30.61-50.13-91.08-64.24-140.08-34.28-52.98 32.33-60.03 91.59-31.03 144.27l-41.69 25.45c-42.24-75.49-25.62-162.24 48.18-207.34 70.95-43.37 160.98-26.45 205.74 46.79 38.87 63.63 19.65 137.3 9.48 205.39l-26.84 172.63 180.28-110.12zM-16567.62 10350.97l-266.94-125.44 47.36-28.92 221.53 104.41 8.79-245.13 46.75-28.57-10.18 294.78 270.02 126.65-47.31 28.87-224.7-105.61-8.52 248.11-47.31 28.91zM-16228.52 10143.81l-266.98-125.45 47.31-28.91 221.58 104.45 8.78-245.17 46.75-28.61-10.17 294.81 270.01 126.61-47.31 28.96-224.65-105.66-8.53 248.11-47.31 28.92zM-15742.34 9848.3c-43.06-70.43-135.95-166.83-219.89-115.53-82.8 50.6-40.55 177.94 1.43 246.68 46.15 75.45 137.3 165.18 219.5 114.92 81.68-49.86 42.68-174.52-1.04-246.07zm40.43-26.28c60.91 99.69 84.32 249.41-15.93 310.66-100.33 61.29-222.83-27.87-283.73-127.56-53.68-87.87-91.12-245.3 15.93-310.66 107.04-65.41 230.02 39.69 283.73 127.56zM-15527.77 9661.43l11.3-6.84c46.7-28.57 49.47-79.77 28.48-114.14-23.07-37.7-73.2-52.72-114.92-27.27-38.87 23.76-50.56 74.28-30.95 116.39l-40 24.46c-33.93-64.37-9.91-144.01 47.57-179.12 60.26-36.83 141.81-18.61 178.3 41.13 24.06 39.43 21.03 83.8 7.48 116.04 57.1-1.55 107.44 26.45 134.28 70.39 42.68 69.86 19.82 166.56-52.29 210.62-67.61 41.34-156.26 22.82-201.24-35.58l39.44-24.11c35.71 40.82 93.32 48.96 138.42 21.43 49.56-30.3 68.26-95.88 36.23-148.25-33.02-54.11-98.99-63.29-147.43-33.68l-11.25 6.88-23.42-38.35z"/><path class="fil0" d="M48901.34 10922.18c-566.18 0-1025-458.79-1025-1024.75 0-565.95 458.82-1024.78 1025-1024.78 565.74 0 1024.57 458.83 1024.57 1024.78 0 565.96-458.83 1024.75-1024.57 1024.75zm0-2206.44c-652.75 0-1182.13 529.08-1182.13 1181.69 0 652.66 529.38 1181.7 1182.13 1181.7 652.31 0 1181.69-529.04 1181.69-1181.7 0-652.61-529.38-1181.69-1181.69-1181.69z"/><path class="fil3" d="M59116.71 18124.23c-376.58 0-682.18-305.42-682.18-682.22 0-376.85 305.6-682.27 682.18-682.27 377.02 0 682.61 305.42 682.61 682.27 0 376.8-305.59 682.22-682.61 682.22zm0-1468.98c-434.58 0-786.49 352.26-786.49 786.76 0 434.45 351.91 786.71 786.49 786.71 435.02 0 786.93-352.26 786.93-786.71 0-434.5-351.91-786.76-786.93-786.76z"/><path class="fil0" d="M42894.83 5979.02c-377.1 0-682.27-305.47-682.27-682.27 0-376.8 305.17-682.26 682.27-682.26 376.76 0 681.96 305.46 681.96 682.26s-305.2 682.27-681.96 682.27zm0-1468.98c-434.63 0-787.06 352.17-787.06 786.71 0 434.5 352.43 786.71 787.06 786.71 434.37 0 786.71-352.21 786.71-786.71 0-434.54-352.34-786.71-786.71-786.71zM50189.95 35612.22c0-245.18 198.68-443.81 443.67-443.81 245 0 443.68 198.63 443.68 443.81 0 244.83-198.68 443.44-443.68 443.44-244.99 0-443.67-198.61-443.67-443.44z"/><path class="fil1" d="M50633.62 36055.66c-244.99 0-443.67-198.61-443.67-443.44 0-245.18 198.68-443.81 443.67-443.81v887.25z"/><path class="fil0" d="M40803.58 4280.32c0-245.08 198.59-443.72 443.41-443.72 245.17 0 443.81 198.64 443.81 443.72 0 245.04-198.64 443.72-443.81 443.72-244.82 0-443.41-198.68-443.41-443.72z"/><path class="fil1" d="M41246.99 4724.04c-244.82 0-443.41-198.68-443.41-443.72 0-245.08 198.59-443.72 443.41-443.72v887.44z"/><path class="fil0" d="M22334.96 33540.78h2260.07v-2260.26h-2260.07v2260.26zm2418.97 158.75h-2577.87v-2577.87h2577.87v2577.87z"/><path class="fil6" d="M47082.92 15818.02v1050.84h-273.14l642.79 715.3 642.79-715.3h-273.13v-1050.84z"/><path class="fil7" d="M46275.21 17213.85v988.68h2354.73v-988.68h-333.3v676.55h-1688.13v-676.55z"/><path class="fil3" d="M10442.58 27743.52c-151.07 13.24-284.3-98.65-297.42-249.67-13.11-151.11 98.65-284.3 249.68-297.42 151.15-13.2 284.34 98.61 297.45 249.63 13.12 151.15-98.64 284.34-249.71 297.46zm606.9-60.12c16.93-49.96 27.97-102.46 32.6-156.52l-108-52.29c.09-17.49-.52-35.07-2.03-52.77-.48-6.15-1.34-12.21-1.99-18.27l101.5-64.1c-10.56-53.37-27.4-104.28-49.6-151.8l-119.95 8.65c-11.77-20.82-24.76-40.73-39-59.6l55.84-106.22c-35.32-40.13-75.36-75.84-119.12-106.53l-99.39 67.35a578.598 578.598 0 0 0-63.54-32.2l-4.72-119.86c-49.95-16.97-102.41-28.05-156.43-32.64l-52.29 107.96c-17.44-.04-35.06.56-52.76 2.08-6.24.56-12.25 1.34-18.31 2.07l-64.07-101.67c-53.37 10.64-104.27 27.44-151.89 49.73l8.7 119.9c-20.73 11.78-40.68 24.8-59.51 39.09l-106.31-55.88a665.998 665.998 0 0 0-106.48 119.12l67.48 99.38c-12.08 20.39-22.94 41.6-32.34 63.5l-119.9 4.63c-16.92 50.04-27.96 102.42-32.5 156.57l107.99 52.29c-.17 17.48.39 35.1 1.95 52.8.56 6.15 1.34 12.12 2.08 18.23l-101.59 64.1c10.65 53.29 27.35 104.28 49.65 151.81l119.9-8.66c11.77 20.73 24.76 40.64 39 59.56l-55.84 106.18c35.32 40.21 75.4 76.01 119.12 106.57l99.43-67.44c20.38 12.12 41.55 22.94 63.45 32.33l4.72 119.82a656.675 656.675 0 0 0 156.48 32.63l52.37-107.99c17.4.08 35.02-.48 52.81-1.99 6.11-.52 12.12-1.35 18.1-2.12l64.14 101.76c53.38-10.69 104.28-27.44 151.85-49.74l-8.57-119.98c20.65-11.78 40.6-24.76 59.47-38.96l106.18 55.84c40.17-35.32 75.93-75.36 106.57-119.17l-67.39-99.42c11.99-20.39 22.81-41.51 32.29-63.42l119.85-4.71z"/><path class="fil8" d="M51866.39 29920.56h4560.35v-2959.51h-4560.35z"/><path class="fil7" d="m54146.24 28761.29-2279.85-1396.39v-96.87l2279.85 1395.65 2280.28-1395.65v96.87z"/><path class="fil7" d="M51866.39 29920.56V29862l1602-1585.12 58.44 59.17-1601.13 1584.51zM56426.52 29920.56h-45.02l-1601.13-1584.51 58.44-59.17 1587.71 1571.01zM28119.07 6997.44h2973.64v-1713.3h-2973.64z"/><path class="fil3" d="M28940.5 4988.77v-186.56h-723.13v481.94h198.77v-190.36h2379.49v190.36h198.77v-295.38z"/><path class="fil7" d="M53318.62 22140.52h69.26c135.92 0 222.92-77.44 222.92-216.08 0-138.69-87-213.23-222.92-213.23h-69.26v429.31zm-48.91 49.26v-527.87h118.17c163.19 0 272.26 97.17 272.26 262.53 0 165.39-109.07 265.34-272.26 265.34h-118.17zM53859.69 21975.12h205.17l-102.15-213.96-103.02 213.96zm110.38-313.21 252.35 527.87h-54.1l-79.65-165.4h-252.35l-79.22 165.4h-54.54l253.22-527.87h14.29zM54505.94 21711.21h-137.65v478.57h-49.34v-478.57H54180v-49.3h325.94zM54607.23 21975.12h205.17l-102.58-213.96-102.59 213.96zm109.95-313.21 252.78 527.87h-54.1l-79.65-165.4h-252.79l-78.78 165.4h-54.97l253.22-527.87h14.29zM55338.76 21975.12h204.3l-101.72-213.96-102.58 213.96zm109.51-313.21 252.78 527.87h-54.1l-79.65-165.4h-252.78l-78.35 165.4h-55.41l253.66-527.87h13.85zM55775.94 21661.91l333.3 406.15v-406.15h49.34v527.87h-12.55l-332-404.03v404.03h-49.78v-527.87zM56379.77 21975.12h204.74l-102.15-213.96-102.59 213.96zm109.51-313.21 252.79 527.87h-54.54l-79.21-165.4h-252.79l-78.78 165.4h-54.54l253.22-527.87h13.85zM56857.21 22140.52h170.54v49.26h-222.48v-527.87h51.94zM57276.21 21932.18v257.6h-49.34v-257.6l-177.91-270.27h58.87l143.71 218.2 144.14-218.2h59.3zM57490.04 22099.7l45.89-19.7c16.88 41.51 64.92 66.84 108.21 66.84 54.97 0 115.14-38.7 115.14-97.83 0-123.15-246.73-82.33-246.73-246.34 0-80.94 67.09-147.77 148.47-147.77 51.51 0 101.72 28.13 127.26 73.19l-46.31 20.39c-17.32-26.75-48.48-43.63-80.95-43.63-53.24 0-98.26 44.37-98.26 97.82 0 119.69 245.86 80.25 245.86 246.34 0 87.31-81.8 147.82-164.48 147.82-63.2 0-129.42-36.58-154.1-97.13zM57900.39 22189.78h49.03v-527.87h-49.03zM58027.22 22099.7l45.45-19.7c16.88 41.51 64.92 66.84 108.64 66.84 54.54 0 114.71-38.7 114.71-97.83 0-123.15-246.29-82.33-246.29-246.34 0-80.94 66.65-147.77 148.46-147.77 51.08 0 101.29 28.13 127.26 73.19l-46.31 20.39c-17.75-26.75-48.91-43.63-80.95-43.63-53.67 0-98.69 44.37-98.69 97.82 0 119.69 246.73 80.25 246.73 246.34 0 87.31-82.67 147.82-164.92 147.82-63.63 0-129.42-36.58-154.09-97.13zM14095.14 35185.12v-109.08c0-54.2-44.07-97.87-98.09-97.87-54.75 0-98.82 43.67-98.82 97.87v109.08h196.91zm286.46 0v49.3h-533.1v-158.38c0-80.95 66.79-147.09 148.55-147.09 81.73 0 147.87 66.14 147.87 147.09v109.08h236.68zM14095.14 34816.32v-109.08c0-53.45-44.07-97.82-98.09-97.82-54.06 0-98.82 44.37-98.82 97.82v109.08h196.91zm286.46 49.31h-533.1v-158.39c0-80.9 66.79-147.08 148.55-147.08 63.29 0 121.51 42.2 140.72 102.02l243.83-121.02v55.58l-236.68 116.87v102.71h236.68v49.31zM14115.01 34470.78c123.71 0 223.91-101.38 223.91-223.1 0-121.76-100.2-223.13-223.91-223.13-123.67 0-223.88 101.37-223.88 223.13 0 122.46 100.21 223.1 223.88 223.1zm0 49.25c-150.64 0-273.66-123.14-273.66-272.35 0-149.2 123.02-272.39 273.66-272.39 151.41 0 273.69 123.19 273.69 272.39 0 149.21-122.28 272.35-273.69 272.35zM13898.23 33832.44h149.25v-197.07h49.74v197.07h284.38v51.34h-533.1v-268.85h49.73zM13848.5 33530.53h533.12v-49.29h-533.12zM13898.23 33099.06v137.99h483.37v49.26h-483.37v138.64h-49.73v-325.89zM33367.69 5899.85h49.29v-533.11h-49.29zM33533.78 5366.74l333.65 410.13v-410.13h49.25v533.11h-12.63l-332.22-408.01v408.01h-49.3v-533.11zM34080.61 5416.48v149.29h197.08v49.74h-197.08v284.34h-51.34v-533.11h268.85v49.74zM34417.76 5633.3c0 123.71 101.37 223.91 223.09 223.91 121.76 0 223.14-100.2 223.14-223.91 0-123.67-101.38-223.92-223.14-223.92-122.41 0-223.09 100.25-223.09 223.92zm-49.26 0c0-150.68 123.19-273.7 272.35-273.7 149.25 0 272.4 123.02 272.4 273.7 0 151.41-123.15 273.65-272.4 273.65-149.16 0-272.35-122.24-272.35-273.65zM35053.97 5613.38h109.12c53.5 0 97.83-44.06 97.83-98.08 0-54.02-44.33-98.82-97.83-98.82h-109.12v196.9zm-49.26 286.47v-533.11h158.38c80.94 0 147.04 66.79 147.04 148.56 0 63.24-42.16 121.5-102.02 140.76l121.07 243.79h-55.63l-116.82-236.69h-102.76v236.69h-49.26zM35878.82 5366.74v533.11h-49.05v-395.2l-194.39 272.22-193.66-272.22v395.2h-49.04v-533.11h11.29l231.41 324.82 232.14-324.82zM36100 5683.03h204.61l-101.98-216.08-102.63 216.08zm109.69-316.29 252.61 533.11h-54.32l-79.39-167.04h-252.61l-79 167.04h-54.66l253.26-533.11h14.11zM36745.91 5416.48H36608v483.37h-49.39v-483.37h-138.64v-49.74h325.94zM36802.35 5899.85h49.04v-533.11h-49.04zM36985.11 5633.3c0 123.71 101.59 223.91 223.31 223.91 121.71 0 222.96-100.2 222.96-223.91 0-123.67-101.25-223.92-222.96-223.92-122.76 0-223.31 100.25-223.31 223.92zm-49.05 0c0-150.68 123.11-273.7 272.36-273.7 149.2 0 272.35 123.02 272.35 273.7 0 151.41-123.15 273.65-272.35 273.65-149.25 0-272.36-122.24-272.36-273.65zM37583.4 5366.74l333.73 410.13v-410.13h49.04v533.11h-12.68l-332-408.01v408.01h-49.35v-533.11z"/><path class="fil3" d="M42345.88 25717.2h9880.91v-6479.28h-9880.91z"/><path class="fil8" d="M43202.07 24831.7h8168.19v-4708.29h-8168.19z"/><path style="fill:#2ee8ad;fill-rule:nonzero" d="m47720.49 24680.38-592.15-3504.48-737.58 1576.85h-1769.51v-178.25h1656.1l931.5-1991.83 549.3 3251.69 439.78-1672.72h1693.32v178.29h-1556.11z"/><path class="fil7" d="M45812.92 26549.79h2946.75v-832.62h-2946.75z"/><path class="fil3" d="M44948.08 26998.88h4676.78v-449.09h-4676.78z"/><path class="fil0" d="M42904.7 25158.34h8763.45v-5361.6H42904.7v5361.6zm8826.64 63.71h-8890.49v-5488.99h8890.49v5488.99z"/><path class="fil7" d="m27554.45 21998.24 4578.05 2643.14 4578.13-2643.14V16712l-4578.13-2643.1-4578.05 2643.1v5286.24zm4578.05 2849-4756.29-2746.03v-5492.1l4756.29-2746.12 4756.3 2746.12v5492.1l-44.46 25.76-4711.84 2720.27z"/><path class="fil7" d="m32335.81 14485.48-229.28-397.06 110.25-63.67 229.28 397.06-110.25 63.67zm-475.58 119.51-110.24-63.67 229.19-397.06 110.29 63.67-229.24 397.06zm832.12 498.09-229.24-397.06 110.3-63.67 229.19 397.05-110.25 63.68zm-1188.7 119.51-110.25-63.68 229.2-397.05 110.29 63.67-229.24 397.06zm1545.25 498.08-229.24-397.01 110.33-63.67 229.16 397.01-110.25 63.67zm-1901.84 119.51-110.25-63.67 229.2-397.06 110.29 63.68-229.24 397.05zm2258.42 498.13-229.19-397.05 110.29-63.68 229.19 397.06-110.29 63.67zm-2614.96 119.47-110.29-63.67 229.24-397.02 110.29 63.63-229.24 397.06zm2971.55 498.13-229.24-397.06 110.29-63.67 229.24 397.06-110.29 63.67zm-3328.14 119.47-110.29-63.67 229.2-397.02 110.29 63.63-229.2 397.06zm3684.68 498.13-229.2-397.06 110.3-63.67 229.19 397.06-110.29 63.67zm-4041.26 119.51-110.25-63.67 229.2-397.06 110.29 63.67-229.24 397.06zm4397.85 498.09-229.2-397.02 110.29-63.71 229.24 397.05-110.33 63.68zm-4754.39 119.51-110.34-63.68 229.29-397.01 110.24 63.63-229.19 397.06zm5110.97 498.13-229.24-397.06 110.29-63.67 229.24 397.01-110.29 63.72zm-5467.56 119.46-110.29-63.67 229.2-397.06 110.33 63.68-229.24 397.05zm5824.15 498.13-229.24-397.01 110.25-63.67 229.11 397.01-110.12 63.67zm-6180.69 119.47-110.34-63.67 229.24-397.06 110.29 63.67-229.19 397.06zm6537.4 498.13-229.32-397.06 110.42-63.67 228.98 397.06-110.08 63.67zm-6894.03 119.47-110.29-63.67 229.24-397.02 110.29 63.72-229.24 396.97zm3041.11 7.36-52.42-116.05 417.7-188.81 52.47 116-417.75 188.86zm1015.13 60.81-417.75-188.89 52.46-116.01 417.75 188.9-52.46 116zm-1664.93 233.01-52.47-116.05 417.75-188.9 52.46 116.09-417.74 188.86zm2314.73 60.77-417.75-188.85 52.46-116.05 417.8 188.9-52.51 116zm2544.28 136.18-228.94-397.06 110.08-63.67 229.28 397.06-110.42 63.67zm-5508.82 96.83-52.5-116.01 417.75-188.9 52.46 116.05-417.71 188.86zm-2098.09 22.68-110.24-63.67 229.19-397.06 110.34 63.67-229.29 397.06zm5712.47 38.13-417.79-188.89 52.51-116.05 417.75 188.9-52.47 116.04zm-4264.22 233.01-52.46-116.05 417.75-188.85 52.41 116-417.7 188.9zm4914.07 60.77-417.79-188.9 52.5-116 417.71 188.85-52.42 116.05zm1601.26 166.22-229.33-397.06 110.42-63.67 229.33 397.01-110.42 63.72zm-7165.18 66.79-52.46-116.05 417.75-188.85 52.51 116.04-417.8 188.86zm-1154.94 52.68-110.29-63.68 229.2-397.05 110.29 63.67-229.2 397.06zm7368.66 8.09-417.75-188.85 52.47-116.05 417.87 188.9-52.59 116zm-6863.52 233.01-52.46-116.05 417.75-188.86 52.46 116.05-417.75 188.86zm7513.32 60.86-417.66-188.94 52.2-116.01 418.05 188.85-52.59 116.1zm-8163.16 232.96-52.46-116.05 417.74-188.9 52.47 116.05-417.75 188.9zm8813.01 60.77-417.71-188.85 52.59-116.05 343.61 155.44-199.33-345.16 110.42-63.63 229.28 396.97-73.37 42.16 7.06 3.07-52.55 116.05zm-9053.81 48.09-81.38-89.86 229.24-397.01 110.25 63.67-229.19 397.01-40.87-23.59 20.69 45.8-8.74 3.98z"/><path class="fil7" d="m28158.5 17121.69-417.74-188.85 52.46-116 417.75 188.85-52.47 116zm-458.22 73.11-229.24-397.01 81.38-89.86 8.7 3.94-20.69 45.84 40.91-23.59 229.19 397.05-110.25 63.63zm8795.53 119.52-110.42-63.72 199.33-345.12-343.61 155.44-52.59-116.05 417.71-188.85 52.55 116.05-7.06 3.03 73.37 42.2-229.28 397.02zm-904.89 40.42-52.2-116.09 417.66-188.85 52.59 116.05-418.05 188.89zm-6782.57 60.82-417.75-188.94 52.46-116.01 417.75 188.86-52.46 116.09zm6132.95 232.96-52.47-116.09 417.75-188.81 52.59 116.05-417.87 188.85zm-5483.15 60.78-417.75-188.86 52.46-116.05 417.8 188.86-52.51 116.05zm-1401.32 103.14-229.2-397.05 110.29-63.68 229.2 397.02-110.29 63.71zm8082.3 119.52-110.42-63.68 229.33-397.05 110.42 63.67-229.33 397.06zm-1847.64 10.34-52.5-116 417.79-188.9 52.42 116.09-417.71 188.81zm-4183.49 60.77-417.75-188.81 52.46-116.09 417.7 188.9-52.41 116zm3533.65 233.05-52.51-116.05 417.79-188.89 52.47 116.04-417.75 188.9zm-2883.85 60.78-417.75-188.86 52.5-116.05 417.71 188.86-52.46 116.05zm-2344.39 133.14-229.19-397.06 110.24-63.67 229.29 397.06-110.34 63.67zm4578.39 99.86-52.46-116.05 417.75-188.85 52.51 116-417.8 188.9zm2790.71 19.61-110.08-63.63 228.94-397.06 110.42 63.68-229.28 397.01zm-4374.87 41.21-417.75-188.86 52.47-116.09 417.74 188.9-52.46 116.05zm934.36 233-52.46-116.05 417.75-188.89 52.46 116.05-417.75 188.89zm-284.56 60.78-417.7-188.86 52.42-116.05 417.75 188.86-52.47 116.05zM28770 19047.64l-229.24-397.02 110.29-63.67 229.24 397.02-110.29 63.67zm6656.18 119.51-110.42-63.72 229.32-397.01 110.08 63.72-228.98 397.01zm-6299.6 498.09-229.24-397.02 110.34-63.67 229.19 397.06-110.29 63.63zm5942.8 119.51-110.25-63.68 229.24-397.05 110.12 63.67-229.11 397.06zm-5586.25 498.08-229.2-397.01 110.29-63.67 229.24 397.05-110.33 63.63zm5229.7 119.51-110.29-63.67 229.24-397.01 110.29 63.67-229.24 397.01zm-4873.07 498.13-229.29-397.05 110.34-63.68 229.19 397.06-110.24 63.67zm4516.53 119.52-110.29-63.72 229.2-397.02 110.33 63.68-229.24 397.06zm-4159.99 498.08-229.2-397.06 110.25-63.67 229.24 397.06-110.29 63.67zm3803.41 119.51-110.3-63.67 229.2-397.06 110.29 63.67-229.19 397.06zm-3446.87 498.09-229.2-397.02 110.29-63.67 229.2 397.02-110.29 63.67zm3090.28 119.51-110.29-63.67 229.24-397.06 110.29 63.67-229.24 397.06zm-2733.65 498.13-229.24-397.06 110.29-63.63 229.24 397.02-110.29 63.67zm2377.11 119.47-110.29-63.68 229.19-397.05 110.29 63.71-229.19 397.02zm-2020.57 498.08-229.2-397.01 110.25-63.67 229.24 397.05-110.29 63.63zm1663.98 119.51-110.33-63.67 229.24-397.01 110.25 63.67-229.16 397.01zm-1307.39 498.13-229.2-397.05 110.25-63.68 229.24 397.02-110.29 63.71zm950.81 119.51-110.3-63.67 229.24-397.06 110.25 63.68-229.19 397.05zm-594.23 498.13-229.19-397.1 110.24-63.63 229.24 397.02-110.29 63.71zm237.6 119.47-110.25-63.67 229.28-397.02 110.25 63.68-229.28 397.01z"/><path class="fil6" d="M31308.09 13965.92c0-455.27 369.09-824.37 824.41-824.37s824.42 369.1 824.42 824.37c0 455.37-369.1 824.46-824.42 824.46-455.32 0-824.41-369.09-824.41-824.46z"/><path class="fil9" d="M32132.5 14790.38c-273.13 0-515.23-132.84-665.25-337.41-35.07-47.79-65.11-99.47-89.3-154.31-44.93-101.77-69.86-214.31-69.86-332.74 0-455.27 369.09-824.37 824.41-824.37v1648.83z"/><path class="fil10" d="M31212.77 24744.31c0-507.95 411.78-919.73 919.73-919.73 507.96 0 919.73 411.78 919.73 919.73 0 507.96-411.77 919.73-919.73 919.73-507.95 0-919.73-411.77-919.73-919.73z"/><path class="fil11" d="M32132.5 25664.04c-507.95 0-919.73-411.77-919.73-919.73 0-507.95 411.78-919.73 919.73-919.73v1839.46z"/><path class="fil10" d="M26545.64 16765.93c0-507.95 411.69-919.69 919.69-919.69 507.96 0 919.73 411.74 919.73 919.69 0 507.96-411.77 919.73-919.73 919.73-508 0-919.69-411.77-919.69-919.73z"/><path class="fil5" d="M35792.72 16711.82c0-569.89 462.12-1031.92 1032.23-1031.92 569.72 0 1031.88 462.03 1031.88 1031.92 0 569.86-462.16 1031.93-1031.88 1031.93-570.11 0-1032.23-462.07-1032.23-1031.93z"/><path d="M36824.95 17743.75c-182.41 0-353.47-47.27-502.03-130.07-37.39-20.82-73.02-43.81-107.21-68.87-122.07-89.38-223.66-204.87-296.68-338.32-20.48-37.14-38.44-75.62-54.33-115.27-46.22-117.47-71.98-245.43-71.98-379.4 0-569.89 462.12-1031.92 1032.23-1031.92v2063.85z" style="fill:#c55718;fill-rule:nonzero"/><path class="fil10" d="M36170.21 21984.43c0-347.71 281.84-629.55 629.33-629.55 347.84 0 629.72 281.84 629.72 629.55 0 347.67-281.88 629.5-629.72 629.5-347.49 0-629.33-281.83-629.33-629.5z"/><path class="fil11" d="M36799.54 22613.93c-180.24 0-342.56-75.75-457.53-197.12-40.94-43.37-75.88-92.55-103.36-146.22-43.76-85.88-68.44-183.14-68.44-286.16 0-347.71 281.84-629.55 629.33-629.55v1259.05z"/><path class="fil3" d="M30117.86 19355.14c0-1112.65 901.99-2014.64 2014.64-2014.64s2014.64 901.99 2014.64 2014.64-901.99 2014.64-2014.64 2014.64-2014.64-901.99-2014.64-2014.64z"/><path class="fil6" d="M27465.33 22690.29c-389.83 0-705.86-316.03-705.86-705.86 0-389.87 316.03-705.86 705.86-705.86 389.79 0 705.86 315.99 705.86 705.86 0 389.83-316.07 705.86-705.86 705.86zm0-2098.4c-769.05 0-1392.54 623.44-1392.54 1392.54 0 769.05 623.49 1392.45 1392.54 1392.45 769.1 0 1392.49-623.4 1392.49-1392.45 0-769.1-623.39-1392.54-1392.49-1392.54z"/><path class="fil9" d="M27465.33 23376.88c-769.05 0-1392.54-623.4-1392.54-1392.45 0-769.1 623.49-1392.54 1392.54-1392.54v460.73c-514.62 0-931.76 417.19-931.76 931.81 0 514.58 417.14 931.76 931.76 931.76v460.69z"/><path class="fil8" d="M32132.5 23150.06c-313.82 0-618.72-38.09-910.38-109.94l-75.06-129.94-110.25 63.67 10.87 18.87c-1224.89-364.77-2190.59-1331.24-2553.97-2556.79l30.04-51.94-53.59-30.9c-86.44-317.98-132.54-652.53-132.54-997.95 0-328.28 41.68-646.86 119.99-950.64l66.14-38.13-37.79-65.49c360-1247.32 1342.63-2230.68 2589.6-2591.55l-38.75 67.18 110.25 63.67 101.98-176.6c283.48-67.57 579.25-103.37 883.46-103.37v1504.87c-1264.8 0-2290.1 1025.3-2290.1 2290.06s1025.3 2290.1 2290.1 2290.1c725.42 0 1371.98-337.23 1791.59-863.54l82.84 37.48 52.47-116.04-56.88-25.72c264.6-373.51 420.09-829.69 420.09-1322.28 0-48.57-1.69-96.79-4.68-144.62h645.86l95.06 164.66-199.72 345.89 110.25 63.68 229.11-397.06-21.56-12.51 21.56-12.51-87.7-152.15h713.52c1.77 48.05 3.16 96.18 3.16 144.62 0 312.78-37.75 616.69-109.34 907.44l-35.62-61.77-110.08 63.67 98.78 171.45c-378.88 1277.58-1412.19 2273.7-2711.45 2600.03l-10.86-6.27-6.02 10.43c-291.66 71.85-596.6 109.94-910.38 109.94zm1272.98-738.01-229.19 397.05 110.29 63.68 229.19-397.02-110.29-63.71zm-2614.96-119.43-110.29 63.63 229.24 397.06 110.29-63.67-229.24-397.02zm2971.55-498.17-229.24 397.06 110.29 63.67 229.24-397.06-110.29-63.67zm-3328.14-119.47-110.29 63.67 229.2 397.02 110.29-63.67-229.2-397.02zm3684.68-498.13-229.2 397.06 110.3 63.67 229.19-397.06-110.29-63.67zm-4041.26-119.51-110.25 63.67 229.2 397.06 110.29-63.67-229.24-397.06zm4863.95 44.5-52.47 116.05 417.75 188.85 52.59-116-417.87-188.9zm-5483.15-60.77-417.75 188.85 52.46 116.05 417.8-188.86-52.51-116.04zm4917.75-55.11 280.88 127 52.42-116.05-269.32-121.76 145.65-252.22-110.33-63.68-151.93 263.18-31.78-14.37-52.5 116 20.3 9.18-13.29 23.03 110.29 63.72 19.61-34.03zm-4550.78-110.81-134.87 60.99 52.46 116.05 417.7-188.9-52.41-116-166.31 75.14-220.88-382.69-110.34 63.68 214.65 371.73zm5006.66-933.49-229.24 397.01 110.29 63.67 229.24-397.01-110.29-63.67zm-5467.56-119.51-110.29 63.67 229.2 397.01 110.33-63.63-229.24-397.05zm-594.22-119.43-229.24 397.02 110.29 63.67 229.24-396.97-110.29-63.72zm6656.18-119.51-110.42 63.67 229.32 397.06 110.08-63.67-228.98-397.06zm-6393.53-80.68 93.93 162.71 110.29-63.63-130.72-226.43 130.72-226.43-110.29-63.67-93.93 162.71-24.97-43.24-110.34 63.67 61.73 106.96-61.73 106.96 110.34 63.67 24.97-43.28zm-381.6-915.58-110.29 63.67 229.24 397.02 110.29-63.67-229.24-397.02zm832.08-119.47-229.2 397.06 110.29 63.67 229.24-397.05-110.33-63.68zm341.99-592.27-214.65 371.73 110.34 63.68 220.88-382.69 166.31 75.14 52.41-116-417.7-188.9-52.46 116.09 134.87 60.95zm-732.26-470.82-52.46 116.05 417.75 188.86 52.51-116.05-417.8-188.86zm1103.44-172.1-229.2 397.06 110.25 63.67 229.24-397.06-110.29-63.67zm356.54-617.6-229.2 397.02 110.29 63.67 229.2-397.06-110.29-63.63zm356.63-617.6-229.24 397.02 110.29 63.67 229.24-397.06-110.29-63.63z"/><path class="fil16" d="m35306.58 21406.74-417.75-188.85 52.47-116.05 417.87 188.9-52.59 116zm-6213.72-60.77-52.46-116.05 417.75-188.85 52.51 116.04-417.8 188.86zm5563.92-233.01-280.88-127 63.98-110.81 269.32 121.76-52.42 116.05zm-4914.07-60.77-52.46-116.05 134.87-60.99 14.64 25.32 110.24-63.67-8.31-14.37 166.31-75.14 52.41 116-417.7 188.9zm4516.58-118.95-20.3-9.18 52.5-116 31.78 14.37-63.98 110.81zm-252.36-114.06-82.84-37.48a2339.69 2339.69 0 0 0 78.43-104.28l56.88 25.72-52.47 116.04zm-5513.22-383.25c-8.14-27.4-16.02-55.18-23.55-82.84l53.59 30.9-30.04 51.94zm7277.5 0-98.78-171.45 110.08-63.67 35.62 61.77c-14.11 58.3-30 116.17-46.92 173.35zm-7120.16-272.52-110.29-63.67 229.24-397.02 110.29 63.72-229.24 396.97zm6894.03-119.47-229.32-397.06 110.42-63.67 228.98 397.06-110.08 63.67zm-6537.4-498.13-110.34-63.67 61.73-106.96 73.58 127.35-24.97 43.28zm6151.17-170.63-95.06-164.66h147l87.7 152.15-21.56 12.51-88.56-51.16-29.52 51.16zm-6052.7 0-73.5-127.39 93.93-162.71 110.29 63.67-130.72 226.43zm258.07-446.97-110.29-63.67 229.2-397.06 110.33 63.68-229.24 397.05zm356.59-617.59-110.34-63.68 214.65-371.73 116.57 52.72-220.88 382.69zm356.54-617.6-110.25-63.67 229.2-397.06 110.29 63.67-229.24 397.06zm356.58-617.64-110.29-63.67 229.2-397.02 110.29 63.63-229.2 397.06zm356.59-617.6-110.29-63.67 229.24-397.02 110.29 63.63-229.24 397.06zm356.54-617.6-110.25-63.67 38.75-67.18c57.22-16.53 115.18-31.86 173.48-45.75l-101.98 176.6z"/><path class="fil16" d="M31222.12 23040.12c-58.74-14.46-116.83-30.21-174.44-47.4l-10.87-18.87 110.25-63.67 75.06 129.94zm1820.76 0 6.02-10.43 10.86 6.27c-5.71 1.43-11.21 2.77-16.88 4.16zm243.7-167.34-110.29-63.68 229.19-397.05 110.29 63.71-229.19 397.02zm-2377.11-119.47-229.24-397.06 110.29-63.63 229.24 397.02-110.29 63.67zm2733.65-498.13-110.29-63.67 229.24-397.06 110.29 63.67-229.24 397.06zm-3090.28-119.51-229.2-397.02 110.29-63.67 229.2 397.02-110.29 63.67zm3446.87-498.09-110.3-63.67 229.2-397.06 110.29 63.67-229.19 397.06zm-3803.41-119.51-229.2-397.06 110.25-63.67 229.24 397.06-110.29 63.67zm4159.99-498.08-110.29-63.72 13.29-23.03 63.98-110.81 151.93-263.18 110.33 63.68-145.65 252.22-63.98 110.81-19.61 34.03zm-4516.53-119.52-14.64-25.32-214.65-371.73 110.34-63.68 220.88 382.69 8.31 14.37-110.24 63.67zm4873.07-498.13-110.29-63.67 229.24-397.01 110.29 63.67-229.24 397.01zm-5229.7-119.51-229.2-397.01 110.29-63.67 229.24 397.05-110.33 63.63zm5586.25-498.08-110.25-63.68 199.72-345.89 29.52-51.16 88.56 51.16 21.56 12.51-229.11 397.06zm-5942.8-119.51-93.93-162.71-73.58-127.35-61.73-106.96 110.34-63.67 24.97 43.24 73.5 127.39 130.72 226.43-110.29 63.63zm-356.58-617.6-229.24-397.02 110.29-63.67 229.24 397.02-110.29 63.67zm-312.39-643.14c9-34.8 18.39-69.17 28.35-103.62l37.79 65.49-66.14 38.13zm1650.39-401.43-166.31-75.14-116.57-52.72-134.87-60.95 52.46-116.09 417.7 188.9-52.41 116zm-649.85-293.77-417.75-188.86 52.46-116.05 417.8 188.86-52.51 116.05z"/><path class="fil7" d="M33109.71 19265.58c-42.63-470.51-417.1-845.06-887.65-887.65v-223.23c296.85 21.86 563.4 150.81 761.82 349.01 198.29 198.38 327.15 464.93 349.01 761.87h-223.18zm-125.83 940.98c-198.42 198.25-464.93 327.16-761.82 348.97v-223.13c470.55-42.64 845.06-417.23 887.65-887.7h223.18c-21.86 296.89-150.72 563.49-349.01 761.86zm-940.94-82.58v128.16c-207.08-20.38-393.2-110.94-535.14-247.42l162.63-162.66c120.5 114.36 282.87 185 462.16 185 178.55 0 340.35-70.17 460.64-183.75l162.67 162.63c-141.81 135.83-327.41 225.82-533.84 246.12v-128.08h-179.12zm0 431.55c-296.89-21.81-563.49-150.72-761.82-348.97-198.29-198.37-327.2-464.97-349.06-761.86h223.23c42.59 470.55 417.1 845.06 887.65 887.7v223.13zm-761.82-2051.82c198.33-198.2 464.93-327.15 761.82-349.01v223.23c-470.51 42.55-845.02 417.14-887.65 887.65h-223.23c21.91-296.94 150.77-563.49 349.06-761.87zm276.46 851.52c0-158.99 64.24-302.4 168.34-406.63 104.23-104.14 247.72-168.42 406.67-168.47 158.9.05 302.3 64.33 406.49 168.47 104.15 104.23 168.38 247.64 168.42 406.63h-.04c0 158.85-64.23 302.3-168.38 406.49-104.19 104.1-247.59 168.38-406.49 168.38-158.95 0-302.44-64.28-406.67-168.38-104.1-104.19-168.34-247.64-168.34-406.49zm-322.08-89.65c20.38-206.43 110.37-391.99 246.2-533.84l162.67 162.67c-113.62 120.38-183.75 282.18-183.75 460.82 0 179.24 70.69 341.6 185.05 462.07l-162.63 162.66c-136.56-141.97-227.11-328.14-247.54-535.26h128.16v-179.12h-128.16zm1794.01 179.12c-20.39 206.38-110.34 391.99-246.17 533.79l-162.62-162.62c113.54-120.33 183.7-282.14 183.74-460.64h-.04c0-179.34-70.64-341.74-185.04-462.16l162.66-162.67c136.48 141.98 226.99 328.1 247.42 535.18h-128.08v179.12h128.13zm-807.45-858.44v-128.13c207.12 20.39 393.29 110.99 535.27 247.6l-162.63 162.58c-120.46-114.45-282.87-185.09-462.11-185.09-178.6 0-340.49 70.12-460.78 183.79l-162.66-162.71c141.76-135.79 327.41-225.87 533.79-246.17v128.13h179.12zm1277.35 679.32c-44.32-685.29-592.06-1233.03-1277.35-1277.35v-161.85h-179.12v161.85c-685.29 44.32-1233.03 592.06-1277.35 1277.35h-161.85v179.12h161.85c44.32 685.29 592.06 1233.07 1277.35 1277.31v161.84h179.12v-161.84c685.29-44.33 1233.03-592.02 1277.35-1277.31h161.85v-179.12h-161.85z"/><path class="fil11" d="M27465.33 17685.66c-508 0-919.69-411.77-919.69-919.73 0-507.95 411.69-919.69 919.69-919.69v1839.42z"/><path class="fil7" d="M49302.16 33813.74c-808.57 0-1463.91-655.51-1463.91-1464.17 0-808.66 655.34-1464.22 1463.91-1464.22 809.01 0 1464.35 655.56 1464.35 1464.22 0 808.66-655.34 1464.17-1464.35 1464.17zm0-3180.61c-947.95 0-1716.27 768.49-1716.27 1716.44s768.32 1716.44 1716.27 1716.44c948.39 0 1716.7-768.49 1716.7-1716.44s-768.31-1716.44-1716.7-1716.44z"/><path class="fil8" d="M49302.16 33581.3c-680.01 0-1231.47-551.46-1231.47-1231.73s551.46-1231.73 1231.47-1231.73c680.45 0 1231.91 551.46 1231.91 1231.73s-551.46 1231.73-1231.91 1231.73z"/><path class="fil7" d="M49250.22 31421.36h115.01v-317.04h-115.01zM48892.68 31514.38l-99.99 57.48-157.99-274.56 99.12-57.53zM48529.95 31831.18l-57.57 99.56-274.43-158.51 57.14-99.56zM48057.27 32401.9h316.8v-114.97h-316.8zM48467.19 32759.4l57.57 99.55-274.43 158.52-57.57-99.56zM48784.04 33122.09l99.55 57.48-158.42 274.56-99.56-57.48zM49239.83 33594.81h115.01v-317.04h-115.01zM49712.08 33184.76l99.55-57.48 158.86 274.6-99.56 57.44zM50074.81 32867.96l57.57-99.6 274.86 158.55-57.57 99.56zM50230.64 32412.25h316.79v-114.98h-316.79zM50137.57 31939.74l-57.57-99.6 274.43-158.46 57.57 99.51zM49820.72 31577.05l-99.12-57.48 157.99-274.6 99.56 57.52z"/><path class="fil7" d="M49302.16 31025.12c-730.22 0-1324.1 594.14-1324.1 1324.45 0 730.31 593.88 1324.45 1324.1 1324.45 730.66 0 1324.97-594.14 1324.97-1324.45 0-730.31-594.31-1324.45-1324.97-1324.45zm0 2712.57c-764.85 0-1387.73-622.7-1387.73-1388.12 0-765.42 622.88-1388.12 1387.73-1388.12 765.72 0 1388.17 622.7 1388.17 1388.12 0 765.42-622.45 1388.12-1388.17 1388.12z"/><path class="fil5" d="m50036.28 32007.74-742.34 394.16-54.11-101.59 742.35-394.11z"/><path class="fil7" d="M49092.23 32368.14c0-103.71 83.97-187.82 187.42-187.82 103.89 0 187.86 84.11 187.86 187.82s-83.97 187.77-187.86 187.77c-103.45 0-187.42-84.06-187.42-187.77zM51578.98 32459.47h-254.52v-127.34h254.52v127.34zm382.21 0h-254.52v-127.34h254.52v127.34zm382.21 0h-254.95v-127.34h254.95v127.34zm381.78 0h-254.52v-127.34h254.52v127.34zm382.21 0h-254.95v-127.34h254.95v127.34zm382.21 0h-254.95v-127.34h254.95v127.34zm381.78 0h-254.52v-127.34h254.52v127.34zm382.21 0h-254.95v-127.34h254.95v127.34zm381.78 0h-254.52v-127.34h254.52v127.34zm382.21 0h-254.52v-127.34h254.52v127.34zm333.3 0h-206.04v-127.34h206.04v127.34z"/><path class="fil10" d="M55350.88 33378.55h4710.28v-1932.59h-4710.28z"/><path class="fil7" d="M55650.84 33056.64h4109.51v-1288.79h-4109.51z"/><path class="fil0" d="M56879.29 32040.81h-.44v282.53h.44l48.48 65.92 48.04-65.92h.44v-282.53h-.44l-48.04-65.83zM56881.02 32486.31v282.65l48.48 65.75 48.48-65.75h.43v-282.65h-.43l-48.48-65.88zM57332.48 32040.81v282.53h.44l48.48 65.92 48.04-65.92h.44v-282.53h-.44l-48.04-65.83zM57334.65 32486.31h-.43v282.65h.43l48.91 65.75 48.05-65.75h.43v-282.65h-.43l-48.05-65.88zM57295.26 31920.83h-281.79v.26l-66.23 48.3 66.23 48.48v.31h282.22v-.31l65.8-48.48-65.8-48.3v-.26l-.43-.13v.13zm-281.79 0v-.13.13zM57289.2 32801.77h-282.22v.22l-65.8 48.35 65.8 48.48v.43h283.08v-.43l65.37-48.48-65.37-48.35v-.22h-.43l-.43-.13v.13zm-281.79 0v-.13.13zM58138.89 32040.81h-.43v282.53h.43l48.48 65.92 48.48-65.92v-282.53l-48.48-65.83zM58140.62 32486.31v282.65l48.48 65.75 48.48-65.75v-.34l.44-.18h-.44v-281.61h.44l-.44-.13v-.39l-48.48-65.88zM58592.53 32040.81h-.44v282.53h.44l48.04 65.92 48.91-65.92v-282.53l-48.91-65.83zM58594.26 32486.31v282.65l48.48 65.75 48.48-65.75h.43v-282.65h-.43l-48.48-65.88zM58554.87 31920.83h-282.22v.26l-65.8 48.3 65.8 48.48v.31h282.65v-.31l65.79-48.48-65.79-48.3v-.26h-.43v-.13.13zm-281.79 0v-.13.13zM58548.81 32801.77h-282.22v.22l-65.8 48.35 65.8 48.48v.43h282.65v-.43l65.79-48.48-65.79-48.35v-.22h-.43v-.13.13zm-281.79 0v-.13.13zM55849.52 32040.81h-.43v282.53h.43l48.48 65.92 48.48-65.92v-282.53l-48.48-65.83zM55851.69 32486.31h-.43v282.65h.43l48.05 65.75 48.48-65.75h.43v-282.65l-48.91-65.88zM56303.16 32040.81h-.44v282.53h.44l48.48 65.92 48.48-65.92v-282.53l-48.48-65.83zM56305.32 32486.31h-.43v282.65h.43l48.48 65.75 48.05-65.75h.43v-282.65h-.43l-48.05-65.88zM56265.93 31920.83h-282.22v.26l-66.23 48.3 66.23 48.48v.31h282.22v-.31l65.79-48.48-65.79-48.3v-.39.13zm-282.22 0v-.13.13zM56259.44 32801.77h-281.79v.22l-66.23 48.35 66.23 48.48v.43h282.65v-.43l65.36-48.48-65.36-48.35v-.22h-.43l-.43-.13v.13zm-281.36 0v-.13.13zM56591 31998.18v319.66h.44l48.48 74.45 48.04-74.45h.44v-319.66h-.44l-48.04-74.58zM56593.6 32502.15h-.86v319.79h.86l48.05 74.37 48.48-74.37h.43v-319.79h-.43l-48.48-74.49-48.05 74.49zm96.96 319.23zM57586.57 31998.18v319.66h.43l48.05 74.45 48.48-74.45h.43v-319.66h-.43l-48.48-74.58zM57588.73 32502.15h-.43v319.79h.43l48.48 74.37 48.48-74.37h.44v-319.79h-.44l-48.48-74.49-48.48 74.49zm97.4 319.23zM57880.48 31998.18v319.66h.43l48.05 74.45 48.48-74.45h.43v-319.66h-.43l-48.48-74.58zM57882.64 32502.15h-.43v319.79h.43l48.48 74.37 48.48-74.37h.44v-319.79h-.44l-48.48-74.49-48.48 74.49zm97.4 319.23zM58863.06 31998.18h-.43v319.66h.43l48.05 74.45 48.91-74.45h.43v-319.66h-.43l-48.91-74.58zM58865.22 32502.15h-.43v319.79h.43l48.48 74.37 48.05-74.37h.43V32502.15h-.43l-48.05-74.49-48.48 74.49zm96.96 319.23zM59170.39 31998.18v319.66l48.48 74.45 48.48-74.45h.43v-319.66h-.43l-48.48-74.58zM59172.55 32502.15h-.43v319.79h.43l48.48 74.37 48.48-74.37v-319.27h.43l-.43-.13v-.39l-48.48-74.49-48.48 74.49zm96.96 319.23h.43-.43zM59488.53 31998.18v319.66h.44l48.48 74.45 48.48-74.45v-319.66l-48.48-74.58zM59490.7 32502.15v319.79l48.91 74.37 48.05-74.37h.43v-319.79h-.43l-48.05-74.49-48.91 74.49zm97.39 319.23z"/><path class="fil7" d="m50415.03 34113.97-67.96-107.65c571.81-361.48 913.76-980.85 913.76-1656.75 0-1079.8-878.69-1958.32-1958.67-1958.32v-127.35c1150.1 0 2085.93 935.66 2085.93 2085.67 0 719.84-364.03 1379.42-973.06 1764.4z"/><path class="fil6" d="M51618.37 32395.8c0 138.73-112.54 251.18-251.06 251.18-139.38 0-251.92-112.45-251.92-251.18 0-138.77 112.54-251.23 251.92-251.23 138.52 0 251.06 112.46 251.06 251.23z"/><path class="fil7" d="M44669.32 7532.14h127.35v-127.35h-127.35zM44796.58 6931.9h-127.26v-236.47h127.26v236.47zm0 354.68h-127.26v-236.46h127.26v236.46zM44796.58 6577.18h-127.26v-191.02h190.89v127.35h-63.63zM45253.24 6513.51h-261.88v-127.35h261.88v127.35zm392.6 0h-261.88v-127.35h261.88v127.35zm393.03 0h-262.31v-127.35h262.31v127.35zm392.6 0h-261.88v-127.35h261.88v127.35zm393.03 0h-262.31v-127.35h262.31v127.35zm392.6 0h-261.88v-127.35h261.88v127.35zm392.6 0h-261.88v-127.35h261.88v127.35zm393.03 0h-261.87v-127.35h261.87v127.35zm392.6 0h-261.88v-127.35h261.88v127.35zm393.03 0h-262.31v-127.35h262.31v127.35zm392.6 0h-261.87v-127.35h261.87v127.35zm392.6 0h-261.87v-127.35h261.87v127.35zm393.03 0h-261.87v-127.35h261.87v127.35zm392.6 0h-261.87v-127.35h261.87v127.35zM50681.24 6577.18h-127.26v-63.67h-64.06v-127.35h191.32zM50681.24 6892.99h-127.26v-210.54h127.26v210.54zm0 315.81h-127.26v-210.54h127.26v210.54zM50553.98 7441.42h127.35v-127.36h-127.35z"/><path class="fil7" d="M46795.93 6704.52h-127.26v-254.69h127.26v254.69zm0 382.04h-127.26v-254.69h127.26v254.69zm0 382.08h-127.26v-254.73h127.26v254.73zm0 151.98h-127.26v-24.63h127.26v24.63zM48746.81 6704.52h-127.69v-254.69h127.69v254.69zm0 382.04h-127.69v-254.69h127.69v254.69zm0 382.08h-127.69v-254.73h127.69v254.73zm0 151.98h-127.69v-24.63h127.69v24.63zM47771.15 5551.44h-127.25v-254.69h127.25v254.69zm0 382.04h-127.25v-254.69h127.25v254.69zm0 382.04h-127.25v-254.69h127.25v254.69zm0 152.02h-127.25v-24.68h127.25v24.68z"/><path class="fil3" d="M44317.84 8452.87h847.36V7605.5h-847.36z"/><path class="fil7" d="M46308.54 8452.87h847.38V7605.5h-847.38z"/><path class="fil3" d="M48258.98 8452.87h847.38V7605.5h-847.38zM50209.86 8452.87h847.38V7605.5h-847.38z"/><path class="fil10" d="M46138.43 4969.86c0 341.69 278.32 619.72 619.84 619.72 34.2 0 68.4-2.86 102.59-8.57h1824.92l5.62-.48c322.91-10.43 585.22-280.49 585.22-604.31 0-327.37-261.44-594.87-586.95-604.48-32.03-186.65-192.62-323.82-385.24-323.82-77.91 0-153.66 23.29-217.72 66.14-158-235.3-418.57-374.63-703.83-374.63-386.97 0-729.79 269.23-822.85 643.09-248.89 84.28-421.6 322.86-421.6 587.34z"/><path d="M58062.12 7116.52c-193.04-491.02-509.21-926.83-930.22-1272.34 644.55 74.66 1214.22 399.54 1608.05 875.41-211.9 164.23-439.88 296.53-677.83 396.93zm1240.83 1165.67c0 6.77-.55 13.43-.55 20.25l-1021.74.62c0-7.05.55-13.87.55-20.87 0-364.32-61.01-715.99-174.72-1045.53 249.61-105.05 489.79-243.72 712.22-416.4 303.97 408.7 484.24 914.62 484.24 1461.93zm-560.23 1559.9c-215.23-156.31-446.53-281.61-687.82-376.41 129.8-324.16 205.79-672.45 221.88-1034.77l1021.18-.55c-32.18 534.16-235.19 1022.95-555.24 1411.73zm-1610.82 878.13c381.62-313.35 678.38-700.75 874.19-1136.51 228.53 89.71 448.19 207.96 651.75 355.01-388.83 424.56-924.66 711.94-1525.94 781.5zm-219.65 8.43V9373.44c329.47 2.77 658.41 57.96 972.36 165.84-210.23 465.89-541.37 873.86-972.36 1189.37zm0-2297.08 1236.39-.66c-16.08 346.84-89.3 680.1-214.11 990.39-330.04-114.32-676.16-172.68-1022.28-175.39v-814.34zm0-949.56c363.87-3 728.3-69.17 1074.98-198.19 108.17 314.89 166.41 650.42 166.41 998.37 0 7-1.12 13.93-1.12 20.87l-1240.27.66v-821.71zm0-1646.21c473.14 346.41 825.38 804.63 1031.17 1328.03-332.83 123.92-681.72 187.1-1031.17 190.05V5835.8zm-128.14 1516.51c-356.1-11.98-709.99-86.36-1045.03-223.25 209.12-512.09 558.58-960.22 1026.17-1299.69 6.1-.23 12.76-.28 18.86-.45v1523.39zm0 951.41-1268.57.77c0-7.48-.55-14.86-.55-22.3 0-360.82 62.12-708.66 178.05-1033.55 349.45 142.62 719.44 219.66 1091.07 231.7v823.38zm0 943.75c-353.33 11.25-703.89 80.14-1037.27 206.84-132.01-319.22-210.22-663.3-227.42-1022.02l1264.69-.6v815.78zm0 1488.11c-6.1-.28-12.76-.33-18.86-.5-426-309.01-753.82-708.17-966.81-1163.68 316.72-119.75 650.08-185.21 985.67-196.36v1360.54zm-1715.1-764.25c191.38-143.05 396.6-260.2 610.72-351.94 194.7 419.28 482.58 792.75 852 1096.73-572.44-74.01-1083.31-345.81-1462.72-744.79zm-671.16-1538.42 993.99-.55c17.2 375.52 98.19 735.79 236.85 1069.93-226.85 97.12-444.29 221.65-645.65 373.75-336.69-393.38-551.36-894.05-585.19-1443.13zm-5-150.72c0-564.11 191.92-1084.08 513.09-1499.09 208.57 168.63 433.77 306.91 669.51 414.4-122.59 340.75-188.04 705.96-188.04 1084.69 0 7.5 0 14.82.55 22.3l-994.55.5c0-7.6-.56-15.13-.56-22.8zm2138.88-2433.91c-407.7 335.81-716.66 756.49-909.69 1229.8-223.54-102.72-437.09-234.07-635.67-394 386.06-448.41 930.2-756.21 1545.36-835.8zm414.91-146.38-9.43-6.88-4.45 6.43c-28.28-.83-56.57-2.1-84.3-2.1-37.72 0-75.44 1.27-112.06 2.77l-4.98-7.1-9.98 7.55c-1365.65 66.44-2456.16 1198.06-2456.16 2579.62 0 1381.63 1090.51 2513.19 2456.16 2579.81l9.98 7.53 4.98-7.31c36.62 1.6 74.34 2.76 112.06 2.76 27.73 0 56.02-1.16 84.3-2.05l4.45 6.6 9.43-6.98c1378.4-51.86 2484.44-1189.13 2484.44-2580.36 0-1391.09-1106.04-2528.31-2484.44-2580.29z" style="fill:url(#id0);fill-rule:nonzero"/><path class="fil7" d="M49531.14 5039.94h-254.52v-127.35h254.52v127.35zm382.21 0h-254.95v-127.35h254.95v127.35zm382.21 0h-254.95v-127.35h254.95v127.35zm381.78 0h-254.52v-127.35h254.52v127.35zm382.21 0h-254.95v-127.35h254.95v127.35zm381.78 0h-254.52v-127.35h254.52v127.35zm382.21 0h-254.52v-127.35h254.52v127.35zm382.21 0h-254.95v-127.35h254.95v127.35zm381.78 0h-254.52v-127.35h254.52v127.35zm381.78 0h-254.09v-127.35h254.09v127.35zm382.21 0H53097v-127.35h254.52v127.35zm382.21 0h-254.95v-127.35h254.95v127.35zm381.78 0h-254.52v-127.35h254.52v127.35zm382.21 0h-254.95v-127.35h254.95v127.35zm381.78 0h-254.52v-127.35h254.52v127.35zm382.21 0h-254.52v-127.35h254.52v127.35zm382.21 0h-254.95v-127.35h254.95v127.35zm381.78 0h-254.52v-127.35h254.52v127.35zm318.58 63.54h-127.26v-63.54h-63.63v-127.35h190.89v190.89zm0 382.08h-127.26v-254.73h127.26v254.73zm0 212.84h-127.26v-85.49h127.26v85.49z"/><path class="fil5" d="M9208.21 8621.42c-530.25 0-961.59-431.47-961.59-961.67 0-422.16 273.56-781.35 652.66-910.42v261.61c-242.1 115.83-409.74 363.08-409.74 648.81 0 396.32 322.39 718.75 718.67 718.75 396.32 0 718.67-322.43 718.67-718.75 0-285.73-167.61-532.98-409.7-648.72v-261.7c379.09 129.07 652.61 488.26 652.61 910.42 0 530.2-431.34 961.67-961.58 961.67zM9059.3 6596.74h292.27v885.88H9059.3v-885.88zm148.91-145.09c-666.73 0-1207.28 540.51-1207.28 1207.28S8541.48 8866.2 9208.21 8866.2c666.77 0 1207.27-540.5 1207.27-1207.27s-540.5-1207.28-1207.27-1207.28z"/><path class="fil6" d="m43025.88 24594.49-460.43-460.47 611.66-611.75 460.52 460.47z"/><path d="M46162.77 23958.02c-817.62 817.62-2143.28 817.62-2960.85 0-817.67-817.66-817.67-2143.28 0-2960.9 817.57-817.66 2143.23-817.66 2960.85 0 817.67 817.62 817.67 2143.24 0 2960.9z" style="fill:#a5a6a9;fill-rule:nonzero;fill-opacity:.160784;stroke:#000;stroke-width:8.46;stroke-miterlimit:10;stroke-dasharray:8.46 8.46;stroke-opacity:.160784"/><path d="M45729.05 23524.26c-578.07 578.12-1515.33 578.12-2093.46 0-578.03-578.08-578.03-1515.3 0-2093.42 578.13-578.07 1515.39-578.07 2093.46 0 578.08 578.12 578.08 1515.34 0 2093.42z" style="fill:#0a0af7;fill-rule:nonzero;fill-opacity:.109804"/><path class="fil3" d="m42826.03 25089.72-755.85-755.85 347.58-347.54 755.85 755.81z"/><path class="fil5" d="m40941.81 26790.54-572.45-572.41 1792.54-1792.54 572.45 572.45z"/><path class="fil7" d="M44682.32 20665.04c-484.1 0-939.29 188.55-1281.64 530.89-706.67 706.68-706.67 1856.56 0 2563.28 342.35 342.35 797.54 530.86 1281.64 530.86 484.15 0 939.3-188.51 1281.64-530.86 706.73-706.72 706.73-1856.6 0-2563.28-342.34-342.34-797.49-530.89-1281.64-530.89zm0 3688.7c-501.16 0-972.27-195.13-1326.65-549.51-731.53-731.53-731.53-1921.83 0-2653.31 354.38-354.38 825.49-549.56 1326.65-549.56 501.16 0 972.33 195.18 1326.7 549.56 731.49 731.48 731.49 1921.78 0 2653.31-354.37 354.38-825.54 549.51-1326.7 549.51z"/></g></svg>